<?xml version="1.0" standalone="no"?>
<!DOCTYPE svg PUBLIC "-//W3C//DTD SVG 1.1//EN" "http://www.w3.org/Graphics/SVG/1.1/DTD/svg11.dtd" >
<svg xmlns="http://www.w3.org/2000/svg">
<metadata>
Generated by SVGconv.
Copyright   : Copyright  1998 ParaType Inc., ParaType Ltd. All rights reserved.
Designer    : Tagir Safayev
Foundry     : ParaType Ltd
Foundry URL : http://www.paratype.com
</metadata>
<defs>
<font id="DINCondensedWeb-Regular" horiz-adv-x="404" >
<font-face units-per-em="1000" ascent="934" descent="266" />
<missing-glyph horiz-adv-x="500" />
<glyph unicode="&#13;" horiz-adv-x="233" />
<glyph unicode="&#32;" horiz-adv-x="233" />
<glyph unicode="&#33;" horiz-adv-x="210" d="M165 700l-23 -525h-80l-17 525zM157 110v-110h-110l0 110z" />
<glyph unicode="&#34;" horiz-adv-x="343" d="M139 686l-27 -246h-40l-27 246zM298 686l-27 -246h-40l-27 246z" />
<glyph unicode="&#35;" horiz-adv-x="418" d="M212 700l-29 -207h92l29 207h75l-29 -207h56l-1 -64h-64l-21 -155h55l-1 -65h-64l-29 -209h-75l29 209h-92l-29 -209h-75l29 209h-55l1 65h64l21 155h-55v64h64l29 207zM266 429h-92l-21 -155l92 0z" />
<glyph unicode="&#36;" horiz-adv-x="418" d="M186 1q-37 2 -71 18q-34 16 -54 42q-15 20 -24.5 49.5q-9.5 29.5 -9.5 68.5v23h100v-19q0 -15 4 -33q4 -18 14 -29q7 -8 18 -13.5q11 -5.5 23 -7.5l0 224l-39 13q-29 10 -54 26.5q-25 16.5 -42 51.5q-12 26 -14 51q-2 25 -2 51v10q0 11 1.5 26.5q1.5 15.5 7 32.5q5.5 17 16.5 35.5q11 18.5 29 35.5q17 15 41 27q24 12 56 15l0 81h48v-81q38 -2 63.5 -16q25.5 -14 40.5 -30q29 -31 38 -67q9 -36 9 -67v-23h-100v19q0 11 -2.5 30q-2.5 19 -15.5 34q-5 6 -13.5 12q-8.5 6 -19.5 8l0 -192l32 -11q24 -8 49 -20q25 -12 46 -40q21 -29 26 -58.5q5 -29.5 5 -62.5v-14q0 -30 -5 -63q-5 -33 -21.5 -62.5q-16.5 -29.5 -48 -50q-31.5 -20.5 -83.5 -24.5l0 -81h-48zM234 100q8 2 20 7q12 5 21 16q12 14 14.5 33.5q2.5 19.5 2.5 35.5v16q0 13 -2.5 35q-2.5 22 -14.5 37q-7 9 -19 16q-12 7 -22 11zM186 599q-11 -3 -20 -9q-9 -6 -17 -18q-10 -14 -12 -29q-2 -15 -2 -31q0 -18 3 -33.5q3 -15.5 14 -29.5q7 -9 16.5 -15q9.5 -6 17.5 -10z" />
<glyph unicode="&#37;" horiz-adv-x="626" d="M493 700l-288 -700h-76l288 700zM581 106q0 -23 -6 -43q-6 -20 -24 -37q-17 -16 -37 -21q-20 -5 -39 -5q-19 0 -39 5q-20 5 -37 21q-18 17 -24 37q-6 20 -6 43v153q0 23 6 43q6 20 24 37q17 16 37 21q20 5 39 5q19 0 39 -5q20 -5 37 -21q18 -17 24 -37q6 -20 6 -43zM447 105q0 -4 0.5 -11q0.5 -7 5.5 -12q9 -9 22 -9q13 0 22 9q5 5 5.5 12q0.5 7 0.5 11v155q0 4 -0.5 11q-0.5 7 -5.5 12q-9 9 -22 9q-13 0 -22 -9q-5 -5 -5.5 -12q-0.5 -7 -0.5 -11zM257 441q0 -23 -6 -43q-6 -20 -24 -37q-17 -16 -37 -21q-20 -5 -39 -5q-19 0 -39 5q-20 5 -37 21q-18 17 -24 37q-6 20 -6 43v153q0 23 6 43q6 20 24 37q17 16 37 21q20 5 39 5q19 0 39 -5q20 -5 37 -21q18 -17 24 -37q6 -20 6 -43zM123 440q0 -4 0.5 -11q0.5 -7 5.5 -12q9 -9 22 -9q13 0 22 9q5 5 5.5 12q0.5 7 0.5 11v155q0 4 -0.5 11q-0.5 7 -5.5 12q-9 9 -22 9q-13 0 -22 -9q-5 -5 -5.5 -12q-0.5 -7 -0.5 -11z" />
<glyph unicode="&#38;" horiz-adv-x="490" d="M485 260q-4 -18 -10 -37.5q-6 -19.5 -14 -38.5q-8 -21 -17.5 -36q-9.5 -15 -23.5 -30l75 -118h-107l-34 54q-9 -10 -21.5 -21q-12.5 -11 -26.5 -19q-22 -12 -50.5 -18q-28.5 -6 -56.5 -6q-47 0 -79 13.5q-32 13.5 -58 43.5q-21 24 -31.5 52q-10.5 28 -10.5 64q0 34 8 68q8 34 27 62q14 20 37 43q23 23 45 40q-8 12 -19 28.5q-11 16.5 -20 33.5q-14 24 -23.5 52.5q-9.5 28.5 -9.5 71.5q0 32 9 58.5q9 26.5 32 48.5q26 26 56.5 33.5q30.5 7.5 58.5 7.5q35 0 60 -8q25 -8 43 -20q24 -17 39 -43q15 -26 15 -66q0 -35 -11.5 -64q-11.5 -29 -30.5 -55q-16 -22 -39 -44q-23 -22 -42 -38l113 -179q10 13 13.5 22.5q3.5 9.5 7.5 20.5q4 12 7 21.5q3 9.5 6 25.5zM189 303q-13 -10 -25.5 -23.5q-12.5 -13.5 -20.5 -24.5q-23 -33 -23 -81q0 -14 3 -29q3 -15 14 -30q15 -22 35 -28.5q20 -6.5 40 -6.5q20 0 33.5 4q13.5 4 26.5 12q11 6 17.5 11.5q6.5 5.5 12.5 14.5zM213 440q25 22 37.5 41.5q12.5 19.5 18.5 33.5q6 13 9.5 26q3.5 13 3.5 27q0 18 -5.5 29.5q-5.5 11.5 -11.5 17.5q-9 9 -20 12.5q-11 3.5 -23 3.5q-17 0 -27.5 -5.5q-10.5 -5.5 -15.5 -10.5q-13 -12 -15.5 -26.5q-2.5 -14.5 -2.5 -25.5q0 -35 13.5 -62.5q13.5 -27.5 23.5 -40.5z" />
<glyph unicode="&#39;" horiz-adv-x="214" d="M154 686l-27 -246h-40l-27 246z" />
<glyph unicode="&#40;" horiz-adv-x="257" d="M167 -204q-31 61 -53 117.5q-22 56.5 -36.5 111q-14.5 54.5 -21 109.5q-6.5 55 -6.5 114q0 59 6.5 114q6.5 55 21 109.5q14.5 54.5 36.5 110.5q22 56 53 118l70 0q-18 -50 -34.5 -106.5q-16.5 -56.5 -26.5 -105.5q-11 -50 -18.5 -115q-7.5 -65 -7.5 -125q0 -60 7.5 -125q7.5 -65 18.5 -115q10 -49 26.5 -105.5q16.5 -56.5 34.5 -106.5z" />
<glyph unicode="&#41;" horiz-adv-x="257" d="M90 700q31 -62 53 -118q22 -56 36.5 -110.5q14.5 -54.5 21 -109.5q6.5 -55 6.5 -114q0 -59 -6.5 -114q-6.5 -55 -21 -109.5q-14.5 -54.5 -36.5 -111q-22 -56.5 -53 -117.5l-70 0q18 50 34.5 106.5q16.5 56.5 26.5 105.5q5 25 10 54.5q5 29.5 8.5 60.5q3.5 31 5.5 63q2 32 2 62q0 30 -2 62q-2 32 -5.5 63q-3.5 31 -8.5 60.5q-5 29.5 -10 54.5q-10 49 -26.5 105.5q-16.5 56.5 -34.5 106.5z" />
<glyph unicode="&#42;" horiz-adv-x="393" d="M45 494l89 50l-87 50l28 53l88 -50l-2 103h66l-2 -103l90 55l33 -59l-95 -49l95 -46l-33 -63l-92 57l4 -107h-67l3 107l-87 -55z" />
<glyph unicode="&#43;" horiz-adv-x="494" d="M207 331v157h80v-157h157v-80h-157v-157h-80v157h-157l0 80z" />
<glyph unicode="&#44;" horiz-adv-x="210" d="M160 110v-110l-110 -100l0 210z" />
<glyph unicode="&#45;" horiz-adv-x="314" d="M269 351v-90h-224l0 90z" />
<glyph unicode="&#46;" horiz-adv-x="210" d="M160 110v-110h-110l0 110z" />
<glyph unicode="&#47;" horiz-adv-x="338" d="M353 700l-288 -700h-80l288 700z" />
<glyph unicode="&#48;" horiz-adv-x="418" d="M55 549q0 13 1 29q1 16 6 33q5 17 14.5 34q9.5 17 26.5 31q20 17 48.5 25.5q28.5 8.5 57.5 8.5q32 0 61.5 -10q29.5 -10 54.5 -36q27 -29 32.5 -57.5q5.5 -28.5 5.5 -57.5v-398q0 -15 -1 -31q-1 -16 -6 -32.5q-5 -16.5 -15 -32q-10 -15.5 -27 -30.5q-23 -19 -49.5 -27q-26.5 -8 -55.5 -8q-35 0 -60 9q-25 9 -42 23q-34 27 -43 60.5q-9 33.5 -9 68.5zM263 535q0 14 -2 29.5q-2 15.5 -10 26.5q-6 9 -17 15q-11 6 -25 6q-27 0 -42 -21q-8 -11 -10 -26.5q-2 -15.5 -2 -29.5v-370q0 -14 2 -29q2 -15 10 -27q10 -14 21.5 -17.5q11.5 -3.5 20.5 -3.5q28 0 42 21q8 13 10 27.5q2 14.5 2 28.5z" />
<glyph unicode="&#49;" horiz-adv-x="418" d="M183 593l-108 -78v103l112 82h96v-700l-100 0z" />
<glyph unicode="&#50;" horiz-adv-x="418" d="M55 545q0 47 13 76.5q13 29.5 30 47.5q26 27 56.5 34q30.5 7 55.5 7q34 0 63.5 -9.5q29.5 -9.5 52.5 -38.5q17 -20 26.5 -49q9.5 -29 9.5 -64v-37q0 -18 -1.5 -31.5q-1.5 -13.5 -7.5 -32.5q-7 -23 -12.5 -33.5q-5.5 -10.5 -12.5 -22.5l-158 -297h192v-95h-307v92l177 326q5 11 12 26q7 15 10 26q3 11 5.5 29q2.5 18 2.5 31v15q0 33 -15 51q-5 5 -14 10.5q-9 5.5 -25 5.5q-18 0 -28.5 -7.5q-10.5 -7.5 -15.5 -16.5q-7 -12 -8 -26q-1 -14 -1 -31v-27l-100 0z" />
<glyph unicode="&#51;" horiz-adv-x="418" d="M55 564q0 22 8 53q8 31 41 59q40 34 102 34q27 0 56 -7.5q29 -7.5 50 -24.5q19 -15 35 -43.5q16 -28.5 16 -70.5v-101q0 -12 -2 -26.5q-2 -14.5 -8.5 -29q-6.5 -14.5 -18.5 -27q-12 -12.5 -32 -20.5q22 -9 34 -24q12 -15 18 -32q6 -17 7.5 -35.5q1.5 -18.5 1.5 -34.5v-67q0 -42 -6 -74.5q-6 -32.5 -35 -61.5q-26 -26 -56 -33.5q-30 -7.5 -62 -7.5q-27 0 -55 6.5q-28 6.5 -54 31.5q-16 15 -28 40q-12 25 -12 61v71h100v-46q0 -11 3 -25q3 -14 10 -23q5 -7 15.5 -12.5q10.5 -5.5 26.5 -5.5q19 0 36 12q17 12 17 48v104q0 12 -2 25.5q-2 13.5 -12 24.5q-10 11 -20.5 12.5q-10.5 1.5 -23.5 1.5h-24v89h23q11 0 22 2.5q11 2.5 21 12.5q11 11 13.5 24.5q2.5 13.5 2.5 21.5v89q0 14 -4.5 24.5q-4.5 10.5 -11.5 17.5q-5 6 -15.5 10.5q-10.5 4.5 -24.5 4.5q-22 0 -37 -18q-10 -12 -12.5 -25.5q-2.5 -13.5 -2.5 -25.5v-40l-100 0z" />
<glyph unicode="&#52;" horiz-adv-x="418" d="M283 700l-146 -501h97v198h100v-199h48v-90h-48v-108h-100v108h-198v84l149 508z" />
<glyph unicode="&#53;" horiz-adv-x="418" d="M361 700v-90h-194v-184q14 13 32 20q22 9 47 9q25 0 48 -9.5q23 -9.5 38 -26.5q13 -14 21 -37q8 -23 8 -49v-189q0 -25 -6.5 -54.5q-6.5 -29.5 -31.5 -55.5q-15 -17 -42 -30.5q-27 -13.5 -70 -13.5q-35 0 -61.5 10.5q-26.5 10.5 -46.5 27.5q-29 26 -37.5 55.5q-8.5 29.5 -8.5 54.5v31h100v-19q0 -11 1.5 -22.5q1.5 -11.5 8.5 -20.5q5 -8 16 -13.5q11 -5.5 25 -5.5q15 0 24.5 4.5q9.5 4.5 15.5 12.5q9 11 11 24q2 13 2 21v152q0 11 -2 22.5q-2 11.5 -10 21.5q-12 15 -35 15q-11 0 -20.5 -3q-9.5 -3 -18.5 -13q-9 -9 -16 -25l-92 0l0 380z" />
<glyph unicode="&#54;" horiz-adv-x="418" d="M325 700l-124 -303q11 8 26 10q15 2 27 2q19 0 39.5 -8q20.5 -8 37.5 -28q8 -9 19 -31.5q11 -22.5 11 -60.5v-137q0 -43 -12 -70.5q-12 -27.5 -28 -43.5q-20 -20 -51 -30q-31 -10 -63 -10q-29 0 -55.5 9q-26.5 9 -49.5 30q-29 28 -37 57.5q-8 29.5 -8 59.5v102q0 24 3 43.5q3 19.5 8.5 36q5.5 16.5 12 31.5q6.5 15 12.5 31l125 310zM261 270q0 11 -1.5 21q-1.5 10 -9.5 19q-14 17 -36 17q-10 0 -20 -3.5q-10 -3.5 -19 -12.5q-7 -7 -12.5 -18q-5.5 -11 -5.5 -27v-119q0 -10 1.5 -20.5q1.5 -10.5 9.5 -20.5q4 -5 12.5 -11.5q8.5 -6.5 25.5 -6.5q14 0 25 4.5q11 4.5 17 12.5q9 11 11 24q2 13 2 27z" />
<glyph unicode="&#55;" horiz-adv-x="418" d="M359 700v-92l-160 -608h-101l159 607h-108v-82h-90l0 175z" />
<glyph unicode="&#56;" horiz-adv-x="418" d="M363 470q0 -29 -9 -53.5q-9 -24.5 -38 -53.5q20 -15 30 -30q10 -15 13.5 -30.5q3.5 -15.5 3.5 -31.5q0 -16 0 -32v-88q0 -7 -2.5 -33q-2.5 -26 -17 -54.5q-14.5 -28.5 -46 -51q-31.5 -22.5 -88.5 -22.5q-57 0 -88.5 22.5q-31.5 22.5 -46 51q-14.5 28.5 -17 54.5q-2.5 26 -2.5 33v88q0 16 0 32q0 16 3.5 31.5q3.5 15.5 13.5 30.5q10 15 30 30q-29 29 -38 53.5q-9 24.5 -9 53.5v79q0 7 2.5 33q2.5 26 17 54.5q14.5 28.5 46 51q31.5 22.5 88.5 22.5q57 0 88.5 -22.5q31.5 -22.5 46 -51q14.5 -28.5 17 -54.5q2.5 -26 2.5 -33zM263 535q0 10 -1.5 23q-1.5 13 -6.5 25q-5 12 -16 20.5q-11 8.5 -30 8.5q-19 0 -30 -8.5q-11 -8.5 -16 -20.5q-5 -12 -6.5 -25q-1.5 -13 -1.5 -23v-53q0 -10 1.5 -23q1.5 -13 6.5 -25q5 -12 16 -20.5q11 -8.5 30 -8.5q19 0 30 8.5q11 8.5 16 20.5q5 12 6.5 25q1.5 13 1.5 23zM263 255q0 10 -1.5 23q-1.5 13 -6.5 25q-5 12 -16 20.5q-11 8.5 -30 8.5q-19 0 -30 -8.5q-11 -8.5 -16 -20.5q-5 -12 -6.5 -25q-1.5 -13 -1.5 -23v-90q0 -10 1.5 -23q1.5 -13 6.5 -25q5 -12 16 -20.5q11 -8.5 30 -8.5q19 0 30 8.5q11 8.5 16 20.5q5 12 6.5 25q1.5 13 1.5 23z" />
<glyph unicode="&#57;" horiz-adv-x="418" d="M93 0l124 303q-11 -8 -26 -10q-15 -2 -27 -2q-19 0 -39.5 8q-20.5 8 -37.5 28q-8 9 -19 31.5q-11 22.5 -11 60.5v137q0 43 12 70.5q12 27.5 28 43.5q20 20 51 30q31 10 63 10q29 0 55.5 -9q26.5 -9 49.5 -30q29 -28 37 -57.5q8 -29.5 8 -59.5v-102q0 -24 -3 -43.5q-3 -19.5 -8.5 -36q-5.5 -16.5 -12 -31.5q-6.5 -15 -12.5 -31l-125 -310zM157 430q0 -11 1.5 -21q1.5 -10 9.5 -19q6 -8 15 -12.5q9 -4.5 21 -4.5q10 0 20 3.5q10 3.5 19 12.5q7 7 12.5 18q5.5 11 5.5 27v119q0 10 -1.5 20.5q-1.5 10.5 -9.5 20.5q-4 5 -12.5 11.5q-8.5 6.5 -25.5 6.5q-28 0 -42 -17q-9 -11 -11 -24q-2 -13 -2 -27z" />
<glyph unicode="&#58;" horiz-adv-x="205" d="M155 491v-105h-105v105zM155 105v-105h-105l0 105z" />
<glyph unicode="&#59;" horiz-adv-x="205" d="M155 105v-105l-105 -100v205zM155 491v-105h-105l0 105z" />
<glyph unicode="&#60;" horiz-adv-x="494" d="M37 323l394 183v-73l-290 -135l290 -135v-73l-394 183z" />
<glyph unicode="&#61;" horiz-adv-x="494" d="M444 261v-80h-394v80zM444 401v-80h-394l0 80z" />
<glyph unicode="&#62;" horiz-adv-x="494" d="M63 90v73l290 135l-290 135v73l394 -183l0 -50z" />
<glyph unicode="&#63;" horiz-adv-x="354" d="M121 256q0 16 0.5 27q0.5 11 3.5 21q3 10 10 22q7 12 20 32l57 90q12 19 14.5 37.5q2.5 18.5 2.5 28.5v42q0 11 -2.5 21.5q-2.5 10.5 -12.5 20.5q-9 9 -20 11.5q-11 2.5 -22 2.5q-15 0 -25 -5q-10 -5 -15 -12q-5 -7 -8.5 -18.5q-3.5 -11.5 -3.5 -22.5v-48h-100v60q0 39 17.5 69q17.5 30 38.5 46q17 13 40.5 21q23.5 8 52.5 8q74 0 115 -38q12 -11 28.5 -37q16.5 -26 16.5 -68v-55q0 -28 -4.5 -54q-4.5 -26 -18.5 -49l-70 -111q-12 -19 -13.5 -37q-1.5 -18 -1.5 -31v-57h-100zM226 110v-110h-110l0 110z" />
<glyph unicode="&#64;" horiz-adv-x="667" d="M472 175q0 -4 0.5 -10q0.5 -6 3 -12q2.5 -6 7 -10q4.5 -4 13.5 -4q16 0 22 15.5q6 15.5 6 52.5v220q0 16 -1 36q-1 20 -5.5 40.5q-4.5 20.5 -12.5 39.5q-8 19 -23 34q-21 21 -59.5 35.5q-38.5 14.5 -89.5 14.5q-48 0 -79.5 -10q-31.5 -10 -51 -25q-19.5 -15 -29.5 -31.5q-10 -16.5 -14 -28.5q-3 -10 -9.5 -41.5q-6.5 -31.5 -6.5 -99.5v-242q0 -68 12 -101.5q12 -33.5 27 -50.5q15 -17 36 -26q21 -9 42.5 -14q21.5 -5 40 -6q18.5 -1 29.5 -1q12 0 32.5 1.5q20.5 1.5 37.5 4.5q16 3 36.5 9q20.5 6 35.5 11l19 -64q-33 -14 -59 -20.5q-26 -6.5 -39 -8.5q-17 -3 -40 -4.5q-23 -1.5 -39 -1.5q-18 0 -44.5 2q-26.5 2 -55.5 9q-29 7 -56.5 21q-27.5 14 -48.5 38q-18 21 -28 46q-10 25 -14.5 52q-4.5 27 -5.5 54q-1 27 -1 52v240q0 63 9 125q9 62 42 104q12 15 30.5 29q18.5 14 45 25.5q26.5 11.5 62 18.5q35.5 7 80.5 7q66 0 124 -14.5q58 -14.5 98 -56.5q35 -36 45.5 -85.5q10.5 -49.5 10.5 -116.5v-219q0 -42 -5 -64.5q-5 -22.5 -12 -34.5q-11 -20 -34.5 -31.5q-23.5 -11.5 -52.5 -11.5q-15 0 -31.5 4q-16.5 4 -29.5 14q-12 9 -21.5 25.5q-9.5 16.5 -10.5 39.5q-2 -22 -10.5 -34q-8.5 -12 -22.5 -23q-16 -13 -30 -19.5q-14 -6.5 -39 -6.5q-21 0 -44 6.5q-23 6.5 -41 28.5q-19 23 -23.5 52.5q-4.5 29.5 -4.5 55.5v138q0 15 1 32q1 17 4.5 34q3.5 17 11 32.5q7.5 15.5 19.5 27.5q11 10 27.5 16.5q16.5 6.5 36.5 6.5q13 0 28 -3.5q15 -3.5 28 -10.5q11 -6 20.5 -14.5q9.5 -8.5 17.5 -17.5l0 39h83zM278 208q0 -13 2 -26q2 -13 10 -24q8 -11 17.5 -15q9.5 -4 20.5 -4q17 0 28.5 7.5q11.5 7.5 16.5 16.5q8 14 9.5 35q1.5 21 1.5 44v105q0 12 -1.5 28q-1.5 16 -9.5 28q-6 8 -16 14q-10 6 -24 6q-22 0 -37 -16q-13 -14 -15.5 -33.5q-2.5 -19.5 -2.5 -29.5z" />
<glyph unicode="&#65;" horiz-adv-x="414" d="M304 0l-33 150h-128l-33 -150h-100l153 700h88l153 -700zM205 505l-52 -266l106 0z" />
<glyph unicode="&#66;" horiz-adv-x="441" d="M195 700q11 0 27 -1q16 -1 34 -4.5q18 -3.5 36 -10q18 -6.5 35 -18.5q24 -17 37 -38.5q13 -21.5 19 -43.5q6 -22 7 -43q1 -21 1 -36q0 -35 -5 -60.5q-5 -25.5 -25 -48.5q-10 -12 -20 -19.5q-10 -7.5 -18 -12.5q20 -9 30.5 -21q10.5 -12 17.5 -23q15 -26 17.5 -44.5q2.5 -18.5 2.5 -43.5v-53q0 -11 -1 -29q-1 -18 -6.5 -38q-5.5 -20 -18 -41q-12.5 -21 -34.5 -38q-17 -13 -45.5 -23q-28.5 -10 -73.5 -10h-152v700zM160 410h48q26 0 41 8.5q15 8.5 23 17.5q9 11 14 27q5 16 5 33v43q0 14 -5.5 26.5q-5.5 12.5 -13.5 21.5q-9 9 -24.5 16q-15.5 7 -40.5 7h-47zM160 90h45q11 0 31.5 4.5q20.5 4.5 36.5 26.5q6 9 10 19.5q4 10.5 5.5 20.5q1.5 10 2 18q0.5 8 0.5 13v33q0 26 -5 44.5q-5 18.5 -22 32.5q-22 18 -53 18l-51 0z" />
<glyph unicode="&#67;" horiz-adv-x="436" d="M291 541q0 11 -3 23.5q-3 12.5 -10 22.5q-4 5 -16 15q-12 10 -36 10q-20 0 -32 -7q-12 -7 -20 -16q-12 -15 -14.5 -33q-2.5 -18 -2.5 -36v-345q0 -17 1.5 -32.5q1.5 -15.5 11.5 -29.5q5 -8 17.5 -16.5q12.5 -8.5 33.5 -8.5q17 0 32 6q15 6 24 18q4 5 9 18q5 13 5 39v25h100v-29q0 -52 -14 -83q-14 -31 -28 -45q-16 -17 -47.5 -32q-31.5 -15 -83.5 -15q-50 0 -79.5 16.5q-29.5 16.5 -46.5 36.5q-27 32 -31 65.5q-4 33.5 -4 60.5v363q0 34 8.5 71q8.5 37 42.5 66q23 21 54.5 31q31.5 10 59.5 10q32 0 65 -11.5q33 -11.5 56 -33.5q19 -19 32 -49q13 -30 13 -67v-48l-97 0z" />
<glyph unicode="&#68;" horiz-adv-x="451" d="M195 700q16 0 34.5 -1q18.5 -1 38 -5q19.5 -4 38 -12.5q18.5 -8.5 35.5 -23.5q19 -18 30 -39.5q11 -21.5 16 -42.5q5 -21 6.5 -39.5q1.5 -18.5 1.5 -29.5v-309q0 -36 -7.5 -73q-7.5 -37 -37.5 -70q-17 -18 -35.5 -29q-18.5 -11 -37 -16.5q-18.5 -5.5 -36 -7.5q-17.5 -2 -32.5 -2h-149v700zM160 98h45q16 0 34 4q18 4 33 20q16 17 19.5 41q3.5 24 3.5 41v310q0 15 -3.5 32.5q-3.5 17.5 -15.5 32.5q-14 17 -30 20q-16 3 -35 3l-51 0z" />
<glyph unicode="&#69;" horiz-adv-x="395" d="M60 700h297v-95h-197v-206h174v-90h-174v-214h200v-95l-300 0z" />
<glyph unicode="&#70;" horiz-adv-x="389" d="M60 700h304v-95h-204v-210h179v-95h-179v-300l-100 0z" />
<glyph unicode="&#71;" horiz-adv-x="461" d="M329 54q-11 -19 -24 -30q-13 -11 -24 -17q-22 -12 -43.5 -14.5q-21.5 -2.5 -34.5 -2.5q-27 0 -56.5 9.5q-29.5 9.5 -54.5 40.5q-24 30 -30 64q-6 34 -6 58v354q0 32 5 64q5 32 28 64q15 21 33.5 34q18.5 13 37.5 20q19 7 37.5 9.5q18.5 2.5 32.5 2.5q39 0 71 -12q32 -12 53 -33q20 -20 35.5 -54q15.5 -34 15.5 -83v-28h-100v35q0 13 -3 28q-3 15 -17 29q-8 8 -21 14q-13 6 -33 6q-20 0 -33.5 -7q-13.5 -7 -22.5 -18q-14 -17 -16.5 -36q-2.5 -19 -2.5 -38v-328q0 -16 2.5 -36q2.5 -20 14.5 -36q9 -11 23.5 -18q14.5 -7 32.5 -7q16 0 32 7.5q16 7.5 26 20.5q14 17 16 40q2 23 2 42v94h-85v90h185v-382l-50 0z" />
<glyph unicode="&#72;" horiz-adv-x="455" d="M160 700v-301h135v301h100v-700h-100v309h-135v-309h-100l0 700z" />
<glyph unicode="&#73;" horiz-adv-x="220" d="M160 700v-700h-100l0 700z" />
<glyph unicode="&#74;" horiz-adv-x="361" d="M301 700v-502q0 -19 -1 -40q-1 -21 -6 -42q-5 -21 -15.5 -42q-10.5 -21 -28.5 -39q-30 -30 -63.5 -37.5q-33.5 -7.5 -64.5 -7.5q-10 0 -25 1.5q-15 1.5 -33 7.5q-18 6 -37 18q-19 12 -37 33l77 65q13 -18 29 -22.5q16 -4.5 27 -4.5q17 0 32.5 5.5q15.5 5.5 26.5 20.5q12 16 15.5 35q3.5 19 3.5 36l0 515z" />
<glyph unicode="&#75;" horiz-adv-x="475" d="M160 700v-337l159 337h105l-142 -287l168 -413h-109l-119 313l-62 -108v-205h-100l0 700z" />
<glyph unicode="&#76;" horiz-adv-x="407" d="M160 700v-605h212v-95h-312l0 700z" />
<glyph unicode="&#77;" horiz-adv-x="593" d="M60 700h100l138 -386h4l131 386h100v-700h-100v438h-5l-105 -316h-53l-105 316h-5v-438l-100 0z" />
<glyph unicode="&#78;" horiz-adv-x="487" d="M160 700l167 -440v440h100v-700h-100l-167 440v-440h-100l0 700z" />
<glyph unicode="&#79;" horiz-adv-x="462" d="M56 516q0 40 8 77.5q8 37.5 44 71.5q23 21 53.5 33q30.5 12 69.5 12q39 0 69.5 -12q30.5 -12 53.5 -33q36 -34 44 -71.5q8 -37.5 8 -77.5v-332q0 -40 -8 -77.5q-8 -37.5 -44 -71.5q-23 -21 -53.5 -33q-30.5 -12 -69.5 -12q-39 0 -69.5 12q-30.5 12 -53.5 33q-36 34 -44 71.5q-8 37.5 -8 77.5zM306 531q0 16 -3.5 31.5q-3.5 15.5 -17.5 29.5q-8 8 -21.5 14q-13.5 6 -32.5 6q-19 0 -32.5 -6q-13.5 -6 -21.5 -14q-14 -14 -17.5 -29.5q-3.5 -15.5 -3.5 -31.5v-362q0 -16 3.5 -31.5q3.5 -15.5 17.5 -29.5q8 -8 21.5 -14q13.5 -6 32.5 -6q19 0 32.5 6q13.5 6 21.5 14q14 14 17.5 29.5q3.5 15.5 3.5 31.5z" />
<glyph unicode="&#80;" horiz-adv-x="430" d="M60 700h149q16 0 34 -1q18 -1 36 -5.5q18 -4.5 35.5 -14q17.5 -9.5 34.5 -25.5q34 -35 42.5 -78q8.5 -43 8.5 -82v-20q0 -15 -1 -32.5q-1 -17.5 -5.5 -36.5q-4.5 -19 -13 -37.5q-8.5 -18.5 -23.5 -35.5q-15 -18 -32.5 -28.5q-17.5 -10.5 -35.5 -16.5q-18 -6 -36 -8q-18 -2 -34 -2h-59v-277h-100zM160 367h54q14 0 32.5 4.5q18.5 4.5 34.5 21.5q16 17 17.5 35q1.5 18 1.5 37v46q0 18 -3 41q-3 23 -24 40q-17 14 -37.5 16q-20.5 2 -40.5 2l-35 0z" />
<glyph unicode="&#81;" horiz-adv-x="478" d="M56 516q0 40 8 77.5q8 37.5 44 71.5q23 21 53.5 33q30.5 12 69.5 12q39 0 69.5 -12q30.5 -12 53.5 -33q36 -34 44 -71.5q8 -37.5 8 -77.5v-332q0 -30 -2.5 -50.5q-2.5 -20.5 -13.5 -43.5l63 -50l-51 -62l-62 49q-19 -17 -43.5 -27.5q-24.5 -10.5 -65.5 -9.5q-33 1 -64.5 10.5q-31.5 9.5 -58.5 34.5q-36 34 -44 71.5q-8 37.5 -8 77.5zM210 130l51 62l45 -36v375q0 16 -3.5 31.5q-3.5 15.5 -17.5 29.5q-8 8 -21.5 14q-13.5 6 -32.5 6q-19 0 -32.5 -6q-13.5 -6 -21.5 -14q-14 -14 -17.5 -29.5q-3.5 -15.5 -3.5 -31.5v-362q0 -16 3.5 -31.5q3.5 -15.5 17.5 -29.5q8 -8 21.5 -14q13.5 -6 32.5 -6q15 0 27 4z" />
<glyph unicode="&#82;" horiz-adv-x="445" d="M191 700q19 0 41.5 -0.5q22.5 -0.5 46 -5.5q23.5 -5 45 -16q21.5 -11 39.5 -33q17 -21 27 -52q10 -31 10 -70v-53q0 -34 -10.5 -63.5q-10.5 -29.5 -26.5 -47.5q-11 -13 -25 -22q-14 -9 -28 -14l110 -323h-104l-97 302h-59v-302h-100v700zM160 392h57q17 0 32.5 4.5q15.5 4.5 29.5 18.5q15 14 18 28.5q3 14.5 3 34.5v50q0 20 -6.5 37q-6.5 17 -16.5 27q-15 15 -32 16.5q-17 1.5 -33 1.5l-52 0z" />
<glyph unicode="&#83;" horiz-adv-x="440" d="M291 525q0 11 -2.5 30q-2.5 19 -14.5 34q-7 8 -19 15.5q-12 7.5 -34 7.5q-11 0 -24 -3.5q-13 -3.5 -25 -15.5q-14 -15 -17.5 -34.5q-3.5 -19.5 -3.5 -36.5q0 -14 3 -36.5q3 -22.5 13 -36.5q8 -13 21.5 -19.5q13.5 -6.5 24.5 -11.5l61 -22q23 -8 47 -20.5q24 -12.5 44 -39.5q20 -28 25 -58q5 -30 5 -63v-24q0 -54 -13 -93q-13 -39 -35 -62q-20 -20 -53 -33q-33 -13 -77 -13q-54 0 -88.5 18.5q-34.5 18.5 -51.5 42.5q-12 16 -18.5 35q-6.5 19 -9.5 36.5q-3 17.5 -3.5 30.5q-0.5 13 -0.5 16v23h100v-19q0 -12 2.5 -30q2.5 -18 13.5 -32q13 -16 29 -19.5q16 -3.5 26 -3.5q29 0 43 8.5q14 8.5 20 16.5q11 14 13.5 33.5q2.5 19.5 2.5 35.5v26q0 18 -3 38q-3 20 -13 34q-10 14 -25 21q-15 7 -23 10l-73 26q-27 10 -52 26.5q-25 16.5 -40 51.5q-11 24 -13 50q-2 26 -2 52v20q0 44 15 76.5q15 32.5 37 53.5q25 24 55.5 33.5q30.5 9.5 65.5 9.5q75 0 121 -46.5q46 -46.5 46 -134.5v-23l-100 0z" />
<glyph unicode="&#84;" horiz-adv-x="388" d="M368 700v-95h-124v-605h-100v605h-124l0 95z" />
<glyph unicode="&#85;" horiz-adv-x="454" d="M160 700v-531q0 -36 17 -58.5q17 -22.5 50 -22.5q33 0 50 22.5q17 22.5 17 58.5v531h100v-516q0 -58 -15.5 -95.5q-15.5 -37.5 -40 -59.5q-24.5 -22 -54 -30.5q-29.5 -8.5 -57.5 -8.5q-28 0 -57.5 8.5q-29.5 8.5 -54 30.5q-24.5 22 -40 59.5q-15.5 37.5 -15.5 95.5l0 516z" />
<glyph unicode="&#86;" horiz-adv-x="404" d="M246 0h-88l-148 700h110l81 -484h4l84 484l105 0z" />
<glyph unicode="&#87;" horiz-adv-x="597" d="M121 700l56 -436h4l80 436h75l80 -436h6l54 436h106l-110 -700h-90l-80 452h-7l-80 -452h-90l-110 700z" />
<glyph unicode="&#88;" horiz-adv-x="437" d="M137 700l80 -220l81 220h110l-138 -330l152 -370h-106l-99 253l-92 -253h-110l150 370l-134 330z" />
<glyph unicode="&#89;" horiz-adv-x="414" d="M257 295v-295h-100v298l-147 402h110l87 -278h6l85 278l106 0z" />
<glyph unicode="&#90;" horiz-adv-x="405" d="M360 700v-77l-210 -533h205v-90h-310v88l205 522h-191l0 90z" />
<glyph unicode="&#91;" horiz-adv-x="252" d="M242 626h-92v-756h91v-74h-181v904l182 0z" />
<glyph unicode="&#92;" horiz-adv-x="338" d="M353 0h-80l-288 700l80 0z" />
<glyph unicode="&#93;" horiz-adv-x="252" d="M192 700v-904h-181v74h91v756h-92l0 74z" />
<glyph unicode="&#94;" horiz-adv-x="590" d="M262 700h66l217 -429h-80l-170 339l-170 -339l-80 0z" />
<glyph unicode="&#95;" horiz-adv-x="535" d="M535 -142v-62h-535l0 62z" />
<glyph unicode="&#96;" horiz-adv-x="241" d="M20 700h107l44 -122l-57 0z" />
<glyph unicode="&#97;" horiz-adv-x="405" d="M251 49h-2q-5 -8 -14 -19q-9 -11 -20 -19q-14 -11 -28 -15q-14 -4 -30 -4q-15 0 -36 4.5q-21 4.5 -40 21.5q-23 22 -29.5 53q-6.5 31 -6.5 61q0 13 1 29.5q1 16.5 4 33q3 16.5 9 32.5q6 16 17 29q12 15 28 23.5q16 8.5 32.5 13q16.5 4.5 31.5 5.5q15 1 26 1q5 0 19.5 -0.5q14.5 -0.5 37.5 -2.5l0 52q0 11 -2 21.5q-2 10.5 -11 20.5q-15 16 -40 16q-11 0 -21.5 -4q-10.5 -4 -18.5 -14q-12 -13 -13 -32l-95 0q-1 34 11.5 62q12.5 28 29.5 45q19 19 48 30q29 11 64 11q34 0 61 -11q27 -11 46 -29q27 -27 34 -59q7 -32 7 -58v-347h-100zM251 216q-18 3 -35 3q-12 0 -28 -3.5q-16 -3.5 -28 -17.5q-10 -11 -12.5 -25.5q-2.5 -14.5 -2.5 -26.5q0 -11 2 -21q2 -10 8 -20q14 -23 40 -23q23 0 39.5 15.5q16.5 15.5 16.5 48.5z" />
<glyph unicode="&#98;" horiz-adv-x="410" d="M54 0v700h100v-244q14 18 33 29q14 8 29 13.5q15 5.5 37 5.5q22 0 40.5 -6.5q18.5 -6.5 33.5 -22.5q20 -20 24.5 -43q4.5 -23 4.5 -41v-258q0 -24 -3 -52q-3 -28 -20 -51q-3 -4 -9.5 -10.5q-6.5 -6.5 -16.5 -12.5q-10 -6 -24 -10.5q-14 -4.5 -33 -4.5q-15 0 -31 4q-16 4 -30 13q-10 7 -19 16q-9 9 -15 19l-1 0v-44zM154 156q0 -12 2.5 -25q2.5 -13 13.5 -25q5 -5 14.5 -10.5q9.5 -5.5 23.5 -5.5q21 0 35 15q10 11 11.5 21.5q1.5 10.5 1.5 23.5v201q0 9 -2 19.5q-2 10.5 -11 20.5q-14 15 -35 15q-14 0 -23.5 -5.5q-9.5 -5.5 -14.5 -10.5q-11 -12 -13.5 -25q-2.5 -13 -2.5 -25z" />
<glyph unicode="&#99;" horiz-adv-x="385" d="M255 346v2q0 9 -2 19q-2 10 -9 20q-5 8 -15 13.5q-10 5.5 -25 5.5q-9 0 -19.5 -3q-10.5 -3 -19.5 -14q-9 -11 -11.5 -23q-2.5 -12 -2.5 -25v-192q0 -11 2.5 -22.5q2.5 -11.5 9.5 -19.5q4 -5 13.5 -11q9.5 -6 27.5 -6q11 0 21.5 3q10.5 3 18.5 14q8 10 9.5 21.5q1.5 11.5 1.5 18.5v1h100v-9q0 -22 -4.5 -40q-4.5 -18 -12 -31.5q-7.5 -13.5 -16.5 -24q-9 -10.5 -17 -17.5q-17 -14 -41.5 -24q-24.5 -10 -58.5 -10q-34 0 -64.5 11q-30.5 11 -50.5 32q-15 15 -23 31.5q-8 16.5 -11.5 33.5q-3.5 17 -4 34q-0.5 17 -0.5 33v171q0 15 1.5 31.5q1.5 16.5 6 33.5q4.5 17 13.5 33.5q9 16.5 25 30.5q16 14 41 25.5q25 11.5 62 11.5q36 0 66 -11.5q30 -11.5 49 -31.5q20 -21 30 -52q10 -31 10 -60l0 -3z" />
<glyph unicode="&#100;" horiz-adv-x="410" d="M256 44h-1q-6 -10 -15 -19q-9 -9 -19 -16q-14 -9 -30 -13q-16 -4 -31 -4q-19 0 -33 4.5q-14 4.5 -24 10.5q-10 6 -16.5 12.5q-6.5 6.5 -9.5 10.5q-17 23 -20 51q-3 28 -3 52v258q0 18 4.5 41q4.5 23 24.5 43q15 16 33.5 22.5q18.5 6.5 40.5 6.5q22 0 37 -5.5q15 -5.5 29 -13.5q19 -11 33 -29l0 244h100v-700h-100zM256 340q0 12 -2.5 25q-2.5 13 -13.5 25q-5 5 -14.5 10.5q-9.5 5.5 -23.5 5.5q-22 0 -35 -15q-9 -10 -11 -20.5q-2 -10.5 -2 -19.5v-201q0 -13 1.5 -23.5q1.5 -10.5 11.5 -21.5q13 -15 35 -15q14 0 23.5 5.5q9.5 5.5 14.5 10.5q11 12 13.5 25q2.5 13 2.5 25z" />
<glyph unicode="&#101;" horiz-adv-x="397" d="M150 147q0 -11 2 -22.5q2 -11.5 11 -20.5q12 -14 38 -14q26 0 40 21q9 15 9 34l100 0v-4q0 -14 -2 -29.5q-2 -15.5 -8 -31.5q-6 -16 -17 -31.5q-11 -15.5 -29 -28.5q-19 -14 -43 -21q-24 -7 -50 -7q-35 0 -65 13q-30 13 -50 35q-13 15 -20.5 31q-7.5 16 -11 32q-3.5 16 -4 31q-0.5 15 -0.5 26v190q0 13 1.5 28.5q1.5 15.5 7 31q5.5 15.5 15 31q9.5 15.5 25.5 29.5q17 15 42 24.5q25 9.5 57 9.5q32 0 58.5 -9.5q26.5 -9.5 45.5 -26.5q16 -14 26 -30.5q10 -16.5 15.5 -33q5.5 -16.5 7 -32.5q1.5 -16 1.5 -31v-130h-202zM252 288v65q0 10 -2.5 20q-2.5 10 -11.5 19q-14 14 -37 14q-25 0 -39 -17q-8 -9 -10 -19.5q-2 -10.5 -2 -20.5l0 -61z" />
<glyph unicode="&#102;" horiz-adv-x="268" d="M77 416h-52v80h52v66q0 26 6 55q6 29 32 52q23 20 52 25.5q29 5.5 55 5.5h36v-88h-20q-13 0 -24.5 -2.5q-11.5 -2.5 -22.5 -14.5q-10 -11 -12.5 -22.5q-2.5 -11.5 -2.5 -25.5v-51h81v-80h-80v-416l-100 0z" />
<glyph unicode="&#103;" horiz-adv-x="406" d="M352 496v-542q0 -30 -6 -60.5q-6 -30.5 -32 -57.5q-15 -17 -43 -31q-28 -14 -72 -14q-43 0 -70 14.5q-27 14.5 -41 31.5q-16 18 -26 46q-10 28 -12 57l100 0q-1 -11 3 -20.5q4 -9.5 10 -16.5q8 -9 18.5 -11.5q10.5 -2.5 18.5 -2.5q16 0 26 5.5q10 5.5 15 13.5q7 10 9 24q2 14 2 29v84q-14 -18 -33 -29q-14 -8 -29 -13.5q-15 -5.5 -37 -5.5q-22 0 -40.5 6.5q-18.5 6.5 -33.5 22.5q-20 20 -24.5 43q-4.5 23 -4.5 41v253q0 24 3 52q3 28 20 51q3 4 9.5 10.5q6.5 6.5 16.5 12.5q10 6 24 10.5q14 4.5 33 4.5q15 0 31 -4q16 -4 30 -13q10 -7 19 -16q9 -9 15 -19l1 0v44zM252 340q0 12 -2.5 25q-2.5 13 -13.5 25q-5 5 -14.5 10.5q-9.5 5.5 -23.5 5.5q-21 0 -35 -15q-9 -11 -11 -22q-2 -11 -2 -23v-196q0 -8 2 -18.5q2 -10.5 11 -21.5q14 -15 35 -15q14 0 23.5 5.5q9.5 5.5 14.5 10.5q11 12 13.5 25q2.5 13 2.5 25z" />
<glyph unicode="&#104;" horiz-adv-x="410" d="M54 700h100v-244q14 18 33 29q14 8 29 13.5q15 5.5 37 5.5q22 0 40.5 -6.5q18.5 -6.5 33.5 -22.5q20 -20 24.5 -43q4.5 -23 4.5 -41v-391h-100v351q0 9 -2 19.5q-2 10.5 -11 20.5q-14 15 -35 15q-14 0 -23.5 -5.5q-9.5 -5.5 -14.5 -10.5q-11 -12 -13.5 -25q-2.5 -13 -2.5 -25v-340l-100 0z" />
<glyph unicode="&#105;" horiz-adv-x="208" d="M54 496h100v-496h-100zM154 686v-98h-100l0 98z" />
<glyph unicode="&#106;" horiz-adv-x="210" d="M156 -47q0 -28 -3 -59.5q-3 -31.5 -29 -60.5q-25 -27 -53.5 -32q-28.5 -5 -53.5 -5h-32v98h18q16 0 25.5 5q9.5 5 14.5 10q10 11 11.5 23q1.5 12 1.5 21v543h100zM156 686v-98h-100l0 98z" />
<glyph unicode="&#107;" horiz-adv-x="407" d="M54 700h100v-420h2l120 216h100l-119 -202l143 -294h-108l-90 214l-48 -75v-139l-100 0z" />
<glyph unicode="&#108;" horiz-adv-x="230" d="M154 700v-559q0 -9 2.5 -19.5q2.5 -10.5 11.5 -18.5q8 -7 17 -8.5q9 -1.5 15 -1.5h10v-93h-29q-9 0 -21.5 1q-12.5 1 -26.5 5.5q-14 4.5 -28 12.5q-14 8 -26 23q-18 23 -21.5 47.5q-3.5 24.5 -3.5 46.5l0 564z" />
<glyph unicode="&#109;" horiz-adv-x="608" d="M154 496v-45q7 9 15 17q8 8 16 14q13 10 29.5 16q16.5 6 38.5 6q29 0 54 -16q14 -9 22.5 -20q8.5 -11 13.5 -23q8 14 19 25.5q11 11.5 25 19.5q24 14 55 14q23 0 47 -7q24 -7 43 -33q15 -21 18.5 -43.5q3.5 -22.5 3.5 -42.5v-378h-100v351q0 10 -2.5 20q-2.5 10 -10.5 20q-14 15 -34 15q-22 0 -37 -16q-11 -12 -13.5 -25q-2.5 -13 -2.5 -25v-340h-100v351q0 10 -2 19.5q-2 9.5 -11 20.5q-14 15 -34 15q-9 0 -18.5 -3q-9.5 -3 -18.5 -13q-11 -12 -13.5 -25q-2.5 -13 -2.5 -25v-340h-100l0 496z" />
<glyph unicode="&#110;" horiz-adv-x="410" d="M54 496h100v-45q13 18 27.5 28.5q14.5 10.5 28 16q13.5 5.5 24.5 7q11 1.5 19 1.5q26 0 44 -8q18 -8 30 -21q20 -20 24.5 -43q4.5 -23 4.5 -41v-391h-100v351q0 9 -2 19.5q-2 10.5 -11 20.5q-14 15 -35 15q-14 0 -23.5 -5.5q-9.5 -5.5 -14.5 -10.5q-11 -12 -13.5 -25q-2.5 -13 -2.5 -25v-340l-100 0z" />
<glyph unicode="&#111;" horiz-adv-x="402" d="M50 336q0 15 1 32q1 17 6 34.5q5 17.5 15 34.5q10 17 27 32q20 17 47 26q27 9 55 9q28 0 55 -9q27 -9 47 -26q17 -15 27 -32q10 -17 15 -34.5q5 -17.5 6 -34.5q1 -17 1 -32v-176q0 -15 -1 -32q-1 -17 -6 -34.5q-5 -17.5 -15 -34.5q-10 -17 -27 -32q-20 -17 -47 -26q-27 -9 -55 -9q-28 0 -55 9q-27 9 -47 26q-17 15 -27 32q-10 17 -15 34.5q-5 17.5 -6 34.5q-1 17 -1 32zM252 342q0 33 -15 50q-14 14 -36 14q-22 0 -36 -14q-15 -17 -15 -50v-188q0 -33 15 -50q14 -14 36 -14q11 0 20.5 4q9.5 4 15.5 10q15 17 15 50z" />
<glyph unicode="&#112;" horiz-adv-x="410" d="M154 452h1q6 10 15 19q9 9 19 16q14 9 30 13q16 4 31 4q19 0 33 -4.5q14 -4.5 24 -10.5q10 -6 16.5 -12.5q6.5 -6.5 9.5 -10.5q17 -23 20 -51q3 -28 3 -52v-258q0 -18 -4.5 -41q-4.5 -23 -24.5 -43q-15 -16 -33.5 -22.5q-18.5 -6.5 -40.5 -6.5q-22 0 -37 5.5q-15 5.5 -29 13.5q-19 11 -33 29l0 -244h-100v700h100zM154 156q0 -12 2.5 -25q2.5 -13 13.5 -25q5 -5 14.5 -10.5q9.5 -5.5 23.5 -5.5q21 0 35 15q9 10 11 20.5q2 10.5 2 19.5v201q0 13 -1.5 23.5q-1.5 10.5 -11.5 21.5q-14 15 -35 15q-14 0 -23.5 -5.5q-9.5 -5.5 -14.5 -10.5q-11 -12 -13.5 -25q-2.5 -13 -2.5 -25z" />
<glyph unicode="&#113;" horiz-adv-x="410" d="M356 496v-700h-100v244q-14 -18 -33 -29q-14 -8 -29 -13.5q-15 -5.5 -37 -5.5q-22 0 -40.5 6.5q-18.5 6.5 -33.5 22.5q-20 20 -24.5 43q-4.5 23 -4.5 41v258q0 24 3 52q3 28 20 51q3 4 9.5 10.5q6.5 6.5 16.5 12.5q10 6 24 10.5q14 4.5 33 4.5q15 0 31 -4q16 -4 30 -13q10 -7 19 -16q9 -9 15 -19l1 0v44zM256 340q0 12 -2.5 25q-2.5 13 -13.5 25q-5 5 -14.5 10.5q-9.5 5.5 -23.5 5.5q-22 0 -35 -15q-10 -11 -11.5 -21.5q-1.5 -10.5 -1.5 -23.5v-201q0 -9 2 -19.5q2 -10.5 11 -20.5q13 -15 35 -15q14 0 23.5 5.5q9.5 5.5 14.5 10.5q11 12 13.5 25q2.5 13 2.5 25z" />
<glyph unicode="&#114;" horiz-adv-x="297" d="M154 496v-53l2 -1q15 19 32.5 31q17.5 12 35 19q17.5 7 34 9.5q16.5 2.5 29.5 2.5l0 -107q-18 3 -41 1q-23 -2 -43.5 -13.5q-20.5 -11.5 -34.5 -35.5q-14 -24 -14 -65v-284h-100l0 496z" />
<glyph unicode="&#115;" horiz-adv-x="371" d="M238 362q-2 22 -15 36q-13 13 -36 13q-19 0 -34 -12q-15 -12 -15 -38q0 -7 2 -15.5q2 -8.5 8 -16.5q8 -11 18.5 -16.5q10.5 -5.5 20.5 -9.5l60 -25q19 -8 36 -21q17 -13 28 -27q11 -14 18 -36.5q7 -22.5 7 -54.5q0 -18 -6 -45q-6 -27 -26 -52q-16 -20 -44.5 -35q-28.5 -15 -76.5 -15q-45 0 -73 13.5q-28 13.5 -43 30.5q-19 20 -28 48q-9 28 -9 55l100 0q0 -10 3 -20q3 -10 10 -18q7 -8 18.5 -12q11.5 -4 22.5 -4q11 0 21 4q10 4 18 13q8 9 10.5 19.5q2.5 10.5 2.5 20.5q0 20 -9 34.5q-9 14.5 -41 28.5l-59 25q-29 12 -43 24.5q-14 12.5 -19 17.5q-17 20 -22 42.5q-5 22.5 -5 41.5q0 37 10.5 64q10.5 27 26.5 44q15 15 40.5 27.5q25.5 12.5 66.5 12.5q48 0 75.5 -13q27.5 -13 40.5 -27q18 -18 28 -45.5q10 -27.5 10 -56.5z" />
<glyph unicode="&#116;" horiz-adv-x="255" d="M166 647v-151h64v-80h-64v-272q0 -8 2 -21q2 -13 12 -21q8 -7 19 -8q11 -1 18 -1h13v-93h-27q-11 0 -25 0.5q-14 0.5 -28.5 4q-14.5 3.5 -28.5 10.5q-14 7 -26 20q-21 23 -25 50q-4 27 -4 50v281h-51v80h51l0 151z" />
<glyph unicode="&#117;" horiz-adv-x="410" d="M356 0h-100v50q-2 -2 -11.5 -14q-9.5 -12 -23.5 -23q-30 -21 -69 -21q-32 0 -50.5 12q-18.5 12 -27.5 25q-12 17 -16 37.5q-4 20.5 -4 38.5v391h100v-351q0 -11 2 -22q2 -11 10 -20q5 -5 12.5 -9q7.5 -4 19.5 -4q14 0 24.5 5q10.5 5 17.5 13q11 12 13.5 25q2.5 13 2.5 23v340l100 0z" />
<glyph unicode="&#118;" horiz-adv-x="358" d="M219 0h-80l-132 496h105l67 -315h5l67 315l100 0z" />
<glyph unicode="&#119;" horiz-adv-x="545" d="M109 496l64 -314l59 314h83l61 -314l62 314h100l-118 -496h-85l-60 304h-5l-60 -304h-85l-118 496z" />
<glyph unicode="&#120;" horiz-adv-x="360" d="M129 253l-116 243h105l62 -141l62 141h105l-118 -243l124 -253h-105l-68 152l-68 -152l-105 0z" />
<glyph unicode="&#121;" horiz-adv-x="369" d="M115 496l81 -308h4l62 308h100l-136 -563q-5 -22 -14.5 -53q-9.5 -31 -31.5 -53q-23 -22 -50 -26.5q-27 -4.5 -50 -4.5h-26l-2 93h19q11 0 23.5 3.5q12.5 3.5 23.5 17.5q3 4 7.5 14q4.5 10 10.5 34l16 65l-145 473z" />
<glyph unicode="&#122;" horiz-adv-x="339" d="M38 496h276v-72l-183 -339h183v-85h-289v82l177 329l-164 0z" />
<glyph unicode="&#123;" horiz-adv-x="266" d="M185 408q0 -79 -24 -116q-7 -11 -21.5 -24q-14.5 -13 -40.5 -20q26 -7 40.5 -20q14.5 -13 21.5 -24q12 -19 18 -47q6 -28 6 -69v-130q0 -11 1.5 -25.5q1.5 -14.5 8 -27q6.5 -12.5 18.5 -21q12 -8.5 33 -8.5h10v-80h-16q-29 0 -58.5 12q-29.5 12 -49.5 34q-13 14 -20.5 30.5q-7.5 16.5 -11 32.5q-3.5 16 -4.5 31.5q-1 15.5 -1 28.5v122q0 14 -1.5 34q-1.5 20 -7.5 34q-8 20 -26.5 34.5q-18.5 14.5 -49.5 13.5l0 90q31 -1 49.5 13.5q18.5 14.5 26.5 34.5q6 14 7.5 34q1.5 20 1.5 34v122q0 8 0.5 22.5q0.5 14.5 4 31.5q3.5 17 11 35q7.5 18 21.5 34q13 15 39.5 30.5q26.5 15.5 68.5 15.5h16v-80h-10q-7 0 -19.5 -2.5q-12.5 -2.5 -23.5 -14.5q-13 -14 -15.5 -33q-2.5 -19 -2.5 -32z" />
<glyph unicode="&#124;" horiz-adv-x="190" d="M130 710v-914h-70l0 914z" />
<glyph unicode="&#125;" horiz-adv-x="266" d="M81 538q0 13 -2.5 32q-2.5 19 -15.5 33q-11 12 -23.5 14.5q-12.5 2.5 -19.5 2.5h-10v80h16q42 0 68.5 -15.5q26.5 -15.5 39.5 -30.5q14 -16 21.5 -34q7.5 -18 11 -35q3.5 -17 4 -31.5q0.5 -14.5 0.5 -22.5v-122q0 -14 1.5 -34q1.5 -20 7.5 -34q8 -20 26.5 -34.5q18.5 -14.5 49.5 -13.5l0 -90q-31 1 -49.5 -13.5q-18.5 -14.5 -26.5 -34.5q-6 -14 -7.5 -34q-1.5 -20 -1.5 -34v-122q0 -13 -1 -28.5q-1 -15.5 -5 -31.5q-4 -16 -11 -32.5q-7 -16.5 -20 -30.5q-20 -22 -49.5 -34q-29.5 -12 -58.5 -12h-16v80h10q21 0 33 8.5q12 8.5 18.5 21q6.5 12.5 8 27q1.5 14.5 1.5 25.5v130q0 41 6 69q6 28 18 47q7 11 21.5 24q14.5 13 40.5 20q-26 7 -40.5 20q-14.5 13 -21.5 24q-24 37 -24 116z" />
<glyph unicode="&#126;" horiz-adv-x="442" d="M388 374v-3q0 -16 -4 -37.5q-4 -21.5 -15 -38.5q-9 -14 -27.5 -27q-18.5 -13 -50.5 -13q-19 0 -35 4.5q-16 4.5 -27 8.5l-20 7q-12 5 -23 8.5q-11 3.5 -22 3.5q-14 0 -21 -4.5q-7 -4.5 -10 -8.5q-4 -5 -6.5 -13.5q-2.5 -8.5 -2.5 -16.5l-70 0v3q0 16 4 37.5q4 21.5 15 38.5q9 14 27.5 27q18.5 13 50.5 13q19 0 35 -4.5q16 -4.5 27 -8.5l20 -7q12 -5 23 -8.5q11 -3.5 22 -3.5q14 0 21 4.5q7 4.5 10 8.5q4 5 6.5 13.5q2.5 8.5 2.5 16.5z" />
<glyph unicode="&#160;" horiz-adv-x="233" />
<glyph unicode="&#161;" horiz-adv-x="210" d="M62 375h80l23 -525h-120zM47 550h110v-110l-110 0z" />
<glyph unicode="&#162;" horiz-adv-x="418" d="M269 417v12q0 7 -3.5 16q-3.5 9 -8.5 14q-10 12 -26 16l0 -296q17 5 26 15q5 5 8.5 14.5q3.5 9.5 3.5 17.5v9h100v-9q0 -27 -10 -57q-10 -30 -42 -56q-16 -13 -38 -22q-22 -9 -48 -11l0 -80h-40v80q-25 2 -51 12.5q-26 10.5 -46 29.5q-16 15 -24.5 31.5q-8.5 16.5 -12 33.5q-3.5 17 -4 34q-0.5 17 -0.5 33v155q0 15 1.5 31.5q1.5 16.5 6.5 33.5q5 17 14.5 33.5q9.5 16.5 25.5 30.5q13 12 27.5 18.5q14.5 6.5 27 10.5q12.5 4 22.5 5.5q10 1.5 13 1.5l0 80h40v-80q28 -2 53 -13q25 -11 43 -29q17 -18 29.5 -46.5q12.5 -28.5 12.5 -58.5v-10zM191 475q-12 -3 -22 -13q-12 -13 -14 -25.5q-2 -12.5 -2 -24.5v-176q0 -8 2.5 -19.5q2.5 -11.5 10.5 -22.5q7 -8 13.5 -10.5q6.5 -2.5 11.5 -3.5z" />
<glyph unicode="&#163;" horiz-adv-x="418" d="M258 289h-81v-199h162v-90h-314v90h52v199h-52v80h52v180q0 46 12.5 74.5q12.5 28.5 25.5 43.5q25 29 54.5 36q29.5 7 59.5 7q46 0 74.5 -13q28.5 -13 44.5 -33q16 -20 22 -43.5q6 -23.5 6 -45.5v-41h-100v30q0 5 -1.5 15.5q-1.5 10.5 -9.5 19.5q-5 5 -14 10.5q-9 5.5 -23 5.5q-19 0 -29 -9q-10 -9 -15 -20q-5 -11 -6 -22.5q-1 -11.5 -1 -15.5v-179l81 0z" />
<glyph unicode="&#164;" horiz-adv-x="592" d="M125 236q-21 34 -25.5 63q-4.5 29 -4.5 43q0 14 4.5 43q4.5 29 25.5 63l-74 73l63 64l74 -74q10 8 35.5 20q25.5 12 72.5 12q47 0 72.5 -12q25.5 -12 35.5 -20l74 74l63 -64l-74 -73q4 -5 9.5 -13q5.5 -8 10 -20q4.5 -12 7.5 -30q3 -18 3 -43q0 -50 -11 -73q-11 -23 -19 -33l74 -74l-63 -63l-74 74q-11 -8 -37 -20q-26 -12 -71 -12q-45 0 -71 12q-26 12 -37 20l-74 -74l-63 63zM173 342q0 -26 10 -48.5q10 -22.5 26.5 -39q16.5 -16.5 39 -26q22.5 -9.5 47.5 -9.5q25 0 47.5 9.5q22.5 9.5 39 26q16.5 16.5 26.5 39q10 22.5 10 48.5q0 25 -9.5 47.5q-9.5 22.5 -26.5 39q-17 16.5 -39.5 26.5q-22.5 10 -47.5 10q-26 0 -48 -10q-22 -10 -39 -26.5q-17 -16.5 -26.5 -39t-9.5 -47.5z" />
<glyph unicode="&#165;" horiz-adv-x="418" d="M159 267v31l-14 39h-114v70h88l-107 293h110l87 -293h6l85 293h106l-106 -293h87v-70h-113l-15 -42v-28h128v-70h-128v-197h-100v197h-128l0 70z" />
<glyph unicode="&#166;" horiz-adv-x="190" d="M130 163v-367h-70v367zM130 710v-367h-70l0 367z" />
<glyph unicode="&#167;" horiz-adv-x="406" d="M262 551q0 8 -3 17q-3 9 -8 15q-5 8 -16.5 13.5q-11.5 5.5 -28.5 5.5q-21 0 -32 -9q-17 -12 -17 -34q0 -14 7 -24.5q7 -10.5 17 -18q10 -7.5 22 -13q12 -5.5 21 -10.5l41 -21q23 -12 46 -27q23 -15 40 -41q11 -17 15.5 -36q4.5 -19 4.5 -39q0 -25 -7 -41.5q-7 -16.5 -15 -27.5q-9 -12 -21.5 -22.5q-12.5 -10.5 -22.5 -16.5q24 -24 34 -47.5q10 -23.5 10 -54.5q0 -42 -17 -66q-17 -24 -35 -37q-17 -11 -41 -18.5q-24 -7.5 -55 -7.5q-32 0 -60 9.5q-28 9.5 -52 33.5q-23 23 -31.5 48q-8.5 25 -8.5 54v13h95v-9q0 -8 3 -17q3 -9 8 -15q5 -8 16.5 -13.5q11.5 -5.5 28.5 -5.5q21 0 32 9q17 12 17 34q0 14 -7 24.5q-7 10.5 -17 18q-10 7.5 -22 13q-12 5.5 -21 10.5l-41 21q-23 12 -46 27q-23 15 -40 41q-9 14 -14.5 33q-5.5 19 -5.5 42q0 20 6.5 39q6.5 19 20.5 36q8 9 18.5 17.5q10.5 8.5 20.5 15.5q-23 20 -33.5 43.5q-10.5 23.5 -10.5 58.5q0 42 17.5 66.5q17.5 24.5 34.5 36.5q17 11 41 18.5q24 7.5 55 7.5q32 0 60 -9.5q28 -9.5 52 -33.5q23 -23 31.5 -48q8.5 -25 8.5 -54v-13h-95zM168 420q-6 -5 -13.5 -13q-7.5 -8 -12.5 -16q-7 -13 -7 -27q0 -20 12 -35q8 -10 21 -17.5q13 -7.5 21 -12.5l47 -24q15 10 24 22q8 11 9.5 20.5q1.5 9.5 1.5 11.5q0 8 -2.5 18q-2.5 10 -9.5 18q-8 10 -21 17.5q-13 7.5 -21 12.5z" />
<glyph unicode="&#168;" horiz-adv-x="360" d="M149 588h-95v95h95zM211 683h95v-95l-95 0z" />
<glyph unicode="&#169;" horiz-adv-x="682" d="M450 460h-76v10q0 5 -1 12q-1 7 -6 13q-9 11 -26 11q-17 0 -26 -11q-5 -6 -6 -13q-1 -7 -1 -12v-112q0 -5 1 -12q1 -7 6 -13q9 -11 26 -11q8 0 15 3q7 3 12 8q5 5 5.5 12.5q0.5 7.5 0.5 12.5v10h76v-9q0 -24 -5.5 -43q-5.5 -19 -25.5 -35q-18 -15 -38 -20q-20 -5 -40 -5q-20 0 -40 5q-20 5 -38 20q-20 16 -25.5 35q-5.5 19 -5.5 43v110q0 24 5.5 43q5.5 19 25.5 35q18 15 38 20q20 5 40 5q20 0 40 -5q20 -5 38 -20q20 -16 25.5 -35q5.5 -19 5.5 -43zM107 414q0 -49 18.5 -91.5q18.5 -42.5 50 -74q31.5 -31.5 74 -50q42.5 -18.5 91.5 -18.5q49 0 91.5 18.5q42.5 18.5 74 50q31.5 31.5 50 74q18.5 42.5 18.5 91.5q0 49 -18.5 91.5q-18.5 42.5 -50 74q-31.5 31.5 -74 50q-42.5 18.5 -91.5 18.5q-49 0 -91.5 -18.5q-42.5 -18.5 -74 -50q-31.5 -31.5 -50 -74q-18.5 -42.5 -18.5 -91.5zt0 0zM45 414q0 61 23.5 115q23.5 54 63.5 94q40 40 94 63.5q54 23.5 115 23.5q61 0 115 -23.5q54 -23.5 94 -63.5q40 -40 63.5 -94q23.5 -54 23.5 -115q0 -61 -23.5 -115q-23.5 -54 -63.5 -94q-40 -40 -94 -63.5q-54 -23.5 -115 -23.5q-61 0 -115 23.5q-54 23.5 -94 63.5q-40 40 -63.5 94t-23.5 115z" />
<glyph unicode="&#170;" horiz-adv-x="308" d="M187 608q0 9 -2.5 14.5q-2.5 5.5 -4.5 7.5q-3 4 -9.5 7.5q-6.5 3.5 -17.5 3.5q-15 0 -22 -12q-6 -8 -6 -20l-73 0q0 27 10.5 43q10.5 16 17.5 23q18 17 38.5 21q20.5 4 35.5 4q33 0 52.5 -8.5q19.5 -8.5 30.5 -19.5q11 -11 18.5 -28q7.5 -17 7.5 -37v-218h-76v33q-12 -24 -31 -31q-19 -7 -33 -7q-24 0 -38 7q-14 7 -20 15q-12 14 -16 33q-4 19 -4 33q0 26 3.5 45.5q3.5 19.5 17.5 33.5q15 16 35.5 20.5q20.5 4.5 41.5 4.5q24 0 44 -3zM187 522q-5 1 -13.5 2q-8.5 1 -14.5 1q-20 0 -28 -10q-9 -9 -9 -26v-10q0 -6 1.5 -13.5q1.5 -7.5 8.5 -12.5q5 -4 10.5 -5q5.5 -1 10.5 -1q6 0 13.5 4q7.5 4 13.5 15q5 9 6 18.5q1 9.5 1 14.5z" />
<glyph unicode="&#171;" horiz-adv-x="448" d="M413 377l-101 -100l101 -100v-102l-203 202l203 202zM228 377l-101 -100l101 -100v-102l-203 202l203 202z" />
<glyph unicode="&#172;" horiz-adv-x="494" d="M449 162h-80v164h-328v61l408 0z" />
<glyph unicode="&#173;" horiz-adv-x="314" d="M269 351v-90h-224l0 90z" />
<glyph unicode="&#174;" horiz-adv-x="682" d="M107 414q0 -49 18.5 -91.5q18.5 -42.5 50 -74q31.5 -31.5 74 -50q42.5 -18.5 91.5 -18.5q49 0 91.5 18.5q42.5 18.5 74 50q31.5 31.5 50 74q18.5 42.5 18.5 91.5q0 49 -18.5 91.5q-18.5 42.5 -50 74q-31.5 31.5 -74 50q-42.5 18.5 -91.5 18.5q-49 0 -91.5 -18.5q-42.5 -18.5 -74 -50q-31.5 -31.5 -50 -74q-18.5 -42.5 -18.5 -91.5zt0 0zM241 572h110q18 0 38.5 -3q20.5 -3 38.5 -17q20 -15 25.5 -33.5q5.5 -18.5 5.5 -37.5v-19q0 -12 -3 -27.5q-3 -15.5 -16 -29.5q-2 -3 -8 -7.5q-6 -4.5 -15 -8.5l56 -133h-82l-45 117h-29v-117h-76zM344 438q5 0 14 1q9 1 16 8q9 9 9 24q0 19 -11 27q-7 5 -14.5 6.5q-7.5 1.5 -13.5 1.5h-27v-68zM45 414q0 61 23.5 115q23.5 54 63.5 94q40 40 94 63.5q54 23.5 115 23.5q61 0 115 -23.5q54 -23.5 94 -63.5q40 -40 63.5 -94q23.5 -54 23.5 -115q0 -61 -23.5 -115q-23.5 -54 -63.5 -94q-40 -40 -94 -63.5q-54 -23.5 -115 -23.5q-61 0 -115 23.5q-54 23.5 -94 63.5q-40 40 -63.5 94t-23.5 115z" />
<glyph unicode="&#175;" horiz-adv-x="332" d="M278 668v-70h-224l0 70z" />
<glyph unicode="&#176;" horiz-adv-x="330" d="M25 543q0 20 8 48q8 28 34 53q22 21 47.5 30q25.5 9 50.5 9q27 0 54 -10q27 -10 48 -33q17 -18 27.5 -42.5q10.5 -24.5 10.5 -54.5q0 -29 -9.5 -53q-9.5 -24 -24.5 -41q-17 -20 -45 -33q-28 -13 -61 -13q-29 0 -53.5 9.5q-24.5 9.5 -41.5 25.5q-19 17 -32 44.5q-13 27.5 -13 60.5zt0 0zM85 543q0 -33 23.5 -56.5q23.5 -23.5 56.5 -23.5q33 0 56.5 23.5q23.5 23.5 23.5 56.5q0 33 -23.5 56.5q-23.5 23.5 -56.5 23.5q-33 0 -56.5 -23.5t-23.5 -56.5z" />
<glyph unicode="&#177;" horiz-adv-x="494" d="M207 331v157h80v-157h157v-80h-157v-127h-80v127h-157v80zM444 80v-80h-394l0 80z" />
<glyph unicode="&#178;" horiz-adv-x="311" d="M190 612q0 9 -7 18q-6 8 -12.5 9.5q-6.5 1.5 -11.5 1.5q-18 0 -25 -12q-4 -5 -5 -10.5q-1 -5.5 -1 -9.5v-6h-73v6q0 23 9 40q9 17 19 26q18 17 38.5 21q20.5 4 35.5 4q21 0 42.5 -5q21.5 -5 40.5 -22q11 -11 18.5 -25q7.5 -14 7.5 -34v-7q0 -13 -2.5 -22.5q-2.5 -9.5 -7.5 -18.5q-10 -20 -19.5 -30.5q-9.5 -10.5 -21.5 -22.5l-61 -64h110v-60h-209v50l112 118q4 4 9.5 11q5.5 7 7.5 12q2 5 4 12q2 7 2 12z" />
<glyph unicode="&#179;" horiz-adv-x="311" d="M190 612q0 6 -2.5 10.5q-2.5 4.5 -4.5 7.5q-4 4 -10 7q-6 3 -14 3q-16 0 -25 -11q-6 -8 -6 -20v-6h-73v6q0 23 9 40q9 17 19 26q18 17 38.5 21q20.5 4 35.5 4q21 0 42.5 -5q21.5 -5 40.5 -22q11 -11 18.5 -25q7.5 -14 7.5 -34v-12q0 -17 -9 -34.5q-9 -17.5 -32 -22.5q41 -14 41 -60v-14q0 -20 -7.5 -34q-7.5 -14 -18.5 -25q-19 -17 -40.5 -22q-21.5 -5 -42.5 -5q-15 0 -35.5 4q-20.5 4 -38.5 21q-10 9 -19 26q-9 17 -9 40v6h73v-6q0 -13 6 -20q9 -11 25 -11q8 0 14 3q6 3 10 7q2 3 4.5 7.5q2.5 4.5 2.5 10.5v15q0 13 -10 21q-11 7 -21 7h-19v60h14q6 0 13.5 2q7.5 2 12.5 5q3 2 6.5 7q3.5 5 3.5 13z" />
<glyph unicode="&#180;" horiz-adv-x="241" d="M70 578l44 122h107l-94 -122z" />
<glyph unicode="&#181;" horiz-adv-x="420" d="M366 0h-100v50q-3 -7 -8.5 -17q-5.5 -10 -14 -19q-8.5 -9 -21 -15.5q-12.5 -6.5 -29.5 -6.5q-13 0 -22 4q-9 4 -17 9l0 -209h-100v700h100v-351q0 -9 2 -20.5q2 -11.5 13 -21.5q13 -13 34 -13q12 0 24.5 4.5q12.5 4.5 21.5 13.5q12 12 14.5 25q2.5 13 2.5 23v340l100 0z" />
<glyph unicode="&#182;" horiz-adv-x="490" d="M475 630h-61v-834h-72v834h-74v-834h-72v491h-12q-11 0 -24.5 1.5q-13.5 1.5 -27.5 5.5q-14 4 -28 11.5q-14 7.5 -27 20.5q-27 26 -33.5 56q-6.5 30 -6.5 51v120q0 47 16.5 73q16.5 26 30.5 37q20 17 52.5 27q32.5 10 64.5 10l274 0z" />
<glyph unicode="&#183;" horiz-adv-x="340" d="M100 350q0 29 20.5 49.5q20.5 20.5 49.5 20.5q29 0 49.5 -20.5q20.5 -20.5 20.5 -49.5q0 -29 -20.5 -49.5q-20.5 -20.5 -49.5 -20.5q-29 0 -49.5 20.5t-20.5 49.5z" />
<glyph unicode="&#184;" horiz-adv-x="423" d="M247 0l-3 -37q12 0 24.5 -4q12.5 -4 22.5 -12q22 -18 22 -49q0 -21 -8.5 -34.5q-8.5 -13.5 -16.5 -21.5q-13 -11 -28.5 -15.5q-15.5 -4.5 -32.5 -4.5q-48 0 -77 33l37 33q3 -3 6 -4.5q3 -1.5 6 -3.5q10 -4 18 -4q6 0 12 1.5q6 1.5 10 5.5q7 7 7 17q0 12 -9 18q-8 5 -19 5.5q-11 0.5 -20 -1.5l5 78z" />
<glyph unicode="&#185;" horiz-adv-x="311" d="M135 614l-45 -34v80l53 40h68v-311l-76 0z" />
<glyph unicode="&#186;" horiz-adv-x="308" d="M263 487q0 -24 -5.5 -43q-5.5 -19 -25.5 -35q-18 -15 -38 -20q-20 -5 -40 -5q-20 0 -40 5q-20 5 -38 20q-20 16 -25.5 35q-5.5 19 -5.5 43v110q0 24 5.5 43q5.5 19 25.5 35q18 15 38 20q20 5 40 5q20 0 40 -5q20 -5 38 -20q20 -16 25.5 -35q5.5 -19 5.5 -43zM121 486q0 -5 1 -12q1 -7 6 -13q9 -11 26 -11q8 0 15 3q7 3 12 8q5 5 5.5 12.5q0.5 7.5 0.5 12.5v112q0 5 -1 12q-1 7 -6 13q-9 11 -26 11q-17 0 -26 -11q-5 -6 -6 -13q-1 -7 -1 -12z" />
<glyph unicode="&#187;" horiz-adv-x="448" d="M238 277l-203 -202v102l101 100l-101 100v102zM423 277l-203 -202v102l101 100l-101 100l0 102z" />
<glyph unicode="&#188;" horiz-adv-x="630" d="M113 614l-45 -34v80l53 40h68v-311h-76zM489 700l-288 -700h-80l288 700zM532 307l-103 -200h54v67h66v-67h36v-60h-36v-47h-76v47h-135v39l113 221z" />
<glyph unicode="&#189;" horiz-adv-x="630" d="M95 614l-45 -34v80l53 40h68v-311h-76zM471 700l-288 -700h-80l288 700zM509 223q0 6 -2.5 10.5q-2.5 4.5 -4.5 7.5q-5 7 -11.5 9q-6.5 2 -12.5 2q-18 0 -25 -12q-4 -5 -5 -10.5q-1 -5.5 -1 -9.5v-6h-73v6q0 23 9 40q9 17 19 26q18 17 38.5 21q20.5 4 35.5 4q21 0 42.5 -5q21.5 -5 40.5 -22q11 -11 18.5 -25q7.5 -14 7.5 -34v-7q0 -13 -2.5 -22.5q-2.5 -9.5 -7.5 -18.5q-10 -20 -19.5 -30.5q-9.5 -10.5 -21.5 -22.5l-61 -64h110v-60h-209v50l112 118q4 4 9.5 11q5.5 7 7.5 12q2 5 4 12q2 7 2 12z" />
<glyph unicode="&#190;" horiz-adv-x="630" d="M170 612q0 6 -2.5 10.5q-2.5 4.5 -4.5 7.5q-4 4 -10 7q-6 3 -14 3q-16 0 -25 -11q-6 -8 -6 -20v-6h-73v6q0 23 9 40q9 17 19 26q18 17 38.5 21q20.5 4 35.5 4q21 0 42.5 -5q21.5 -5 40.5 -22q11 -11 18.5 -25q7.5 -14 7.5 -34v-12q0 -17 -9 -34.5q-9 -17.5 -32 -22.5q41 -14 41 -60v-14q0 -20 -7.5 -34q-7.5 -14 -18.5 -25q-19 -17 -40.5 -22q-21.5 -5 -42.5 -5q-15 0 -35.5 4q-20.5 4 -38.5 21q-10 9 -19 26q-9 17 -9 40v6h73v-6q0 -13 6 -20q9 -11 25 -11q8 0 14 3q6 3 10 7q2 3 4.5 7.5q2.5 4.5 2.5 10.5v15q0 13 -10 21q-11 7 -21 7h-19v60h14q6 0 13.5 2q7.5 2 12.5 5q3 2 6.5 7q3.5 5 3.5 13zM499 700l-288 -700h-80l288 700zM542 307l-103 -200h54v67h66v-67h36v-60h-36v-47h-76v47h-135v39l113 221z" />
<glyph unicode="&#191;" horiz-adv-x="354" d="M233 294q0 -17 -0.5 -27.5q-0.5 -10.5 -3.5 -20.5q-3 -10 -10 -22q-7 -12 -20 -32l-57 -90q-12 -19 -14.5 -37.5q-2.5 -18.5 -2.5 -28.5v-42q0 -11 2.5 -21.5q2.5 -10.5 12.5 -20.5q9 -9 20 -11.5q11 -2.5 22 -2.5q15 0 25 5q10 5 15 12q5 7 8.5 18.5q3.5 11.5 3.5 22.5v48h100v-60q0 -39 -17.5 -69q-17.5 -30 -38.5 -46q-17 -13 -40.5 -21q-23.5 -8 -52.5 -8q-74 0 -115 38q-12 11 -28.5 37q-16.5 26 -16.5 68v55q0 28 4.5 54q4.5 26 18.5 49l70 111q12 19 13.5 37q1.5 18 1.5 31v57h100zM128 440v110h110l0 -110z" />
<glyph unicode="&#192;" horiz-adv-x="414" d="M304 0l-33 150h-128l-33 -150h-100l153 700h88l153 -700zM205 505l-52 -266h106zM107 869h121l44 -105l-71 0z" />
<glyph unicode="&#193;" horiz-adv-x="414" d="M304 0l-33 150h-128l-33 -150h-100l153 700h88l153 -700zM205 505l-52 -266h106zM154 764l50 105h121l-106 -105z" />
<glyph unicode="&#194;" horiz-adv-x="414" d="M304 0l-33 150h-128l-33 -150h-100l153 700h88l153 -700zM205 505l-52 -266h106zM151 764h-64l57 105h134l57 -105h-64l-60 58z" />
<glyph unicode="&#195;" horiz-adv-x="414" d="M304 0l-33 150h-128l-33 -150h-100l153 700h88l153 -700zM205 505l-52 -266h106zM85 766q0 10 3.5 26q3.5 16 11.5 30q12 20 28 26q16 6 30 6q7 0 17 -2q10 -2 26 -8l16 -6q6 -2 14.5 -5q8.5 -3 16.5 -3q14 0 22 10q8 10 6 23l55 0v-3q0 -11 -2.5 -27q-2.5 -16 -10.5 -30q-20 -33 -59 -33q-11 0 -22 2.5q-11 2.5 -24 7.5l-14 5q-12 5 -18.5 7q-6.5 2 -13.5 2q-8 0 -13 -3.5q-5 -3.5 -8 -7.5q-6 -9 -6 -22l-55 0z" />
<glyph unicode="&#196;" horiz-adv-x="414" d="M304 0l-33 150h-128l-33 -150h-100l153 700h88l153 -700zM205 505l-52 -266h106zM173 764h-95v100h95zM235 864h95v-100l-95 0z" />
<glyph unicode="&#197;" horiz-adv-x="414" d="M304 0l-33 150h-128l-33 -150h-100l153 700h88l153 -700zM205 505l-52 -266h106zM129 822q0 33 23.5 56.5q23.5 23.5 56.5 23.5q33 0 56.5 -23.5q23.5 -23.5 23.5 -56.5q0 -33 -23.5 -56.5q-23.5 -23.5 -56.5 -23.5q-33 0 -56.5 23.5q-23.5 23.5 -23.5 56.5zt0 0zM179 822q0 -13 8.5 -21.5q8.5 -8.5 21.5 -8.5q13 0 21.5 8.5q8.5 8.5 8.5 21.5q0 13 -8.5 21.5q-8.5 8.5 -21.5 8.5q-13 0 -21.5 -8.5t-8.5 -21.5z" />
<glyph unicode="&#198;" horiz-adv-x="624" d="M289 0v150h-125l-63 -150h-106l294 700h297v-95h-197v-207h174v-89h-174v-214h200v-95zM293 472h-4l-99 -233l103 0z" />
<glyph unicode="&#199;" horiz-adv-x="436" d="M291 541q0 11 -3 23.5q-3 12.5 -10 22.5q-4 5 -16 15q-12 10 -36 10q-20 0 -32 -7q-12 -7 -20 -16q-12 -15 -14.5 -33q-2.5 -18 -2.5 -36v-345q0 -17 1.5 -32.5q1.5 -15.5 11.5 -29.5q5 -8 17.5 -16.5q12.5 -8.5 33.5 -8.5q17 0 32 6q15 6 24 18q4 5 9 18q5 13 5 39v25h100v-29q0 -29 -5 -51q-5 -22 -12 -37.5q-7 -15.5 -14 -25.5q-7 -10 -11 -14q-18 -20 -45.5 -32q-27.5 -12 -57.5 -14l-2 -27q14 0 26.5 -4.5q12.5 -4.5 20.5 -12.5q8 -6 14.5 -18q6.5 -12 6.5 -31q0 -23 -8.5 -37q-8.5 -14 -16.5 -21q-14 -13 -30.5 -17q-16.5 -4 -33.5 -4q-14 0 -26 2.5q-12 2.5 -25 10.5q-14 8 -25 20l37 36q3 -3 6 -4.5q3 -1.5 6 -3.5q10 -4 18 -4q6 0 12 1.5q6 1.5 10 5.5q7 7 7 16q0 4 -1.5 9q-1.5 5 -6.5 9q-7 6 -17.5 7q-10.5 1 -20.5 -2l4 69q-36 2 -64 17q-28 15 -45 35q-27 32 -31 65.5q-4 33.5 -4 60.5v363q0 34 8.5 71q8.5 37 42.5 66q23 21 54.5 31q31.5 10 59.5 10q32 0 65 -11.5q33 -11.5 56 -33.5q19 -19 32 -49q13 -30 13 -67v-48l-97 0z" />
<glyph unicode="&#200;" horiz-adv-x="395" d="M60 700h297v-95h-197v-206h174v-90h-174v-214h200v-95h-300zM90 869h121l44 -105l-71 0z" />
<glyph unicode="&#201;" horiz-adv-x="395" d="M60 700h297v-95h-197v-206h174v-90h-174v-214h200v-95h-300zM137 764l50 105h121l-106 -105z" />
<glyph unicode="&#202;" horiz-adv-x="395" d="M60 700h297v-95h-197v-206h174v-90h-174v-214h200v-95h-300zM137 764h-64l57 105h134l57 -105h-64l-60 58z" />
<glyph unicode="&#203;" horiz-adv-x="395" d="M60 700h297v-95h-197v-206h174v-90h-174v-214h200v-95h-300zM166 764h-95v100h95zM228 864h95v-100l-95 0z" />
<glyph unicode="&#204;" horiz-adv-x="220" d="M160 700v-700h-100v700zM3 869h121l44 -105l-71 0z" />
<glyph unicode="&#205;" horiz-adv-x="220" d="M160 700v-700h-100v700zM50 764l50 105h121l-106 -105z" />
<glyph unicode="&#206;" horiz-adv-x="220" d="M160 700v-700h-100v700zM50 764h-64l57 105h134l57 -105h-64l-60 58z" />
<glyph unicode="&#207;" horiz-adv-x="220" d="M160 700v-700h-100v700zM79 764h-95v100h95zM141 864h95v-100l-95 0z" />
<glyph unicode="&#208;" horiz-adv-x="454" d="M198 700q16 0 34.5 -1q18.5 -1 38 -5q19.5 -4 38 -12.5q18.5 -8.5 35.5 -23.5q19 -18 30 -39.5q11 -21.5 16 -42.5q5 -21 6.5 -39.5q1.5 -18.5 1.5 -29.5v-309q0 -36 -7.5 -73q-7.5 -37 -37.5 -70q-17 -18 -35.5 -29q-18.5 -11 -37 -16.5q-18.5 -5.5 -36 -7.5q-17.5 -2 -32.5 -2h-149v319h-53v70h53v311zM163 389h57v-70h-57v-221h45q16 0 34 4q18 4 33 20q16 17 19.5 41q3.5 24 3.5 41v310q0 15 -3.5 32.5q-3.5 17.5 -15.5 32.5q-14 17 -30 20q-16 3 -35 3l-51 0z" />
<glyph unicode="&#209;" horiz-adv-x="487" d="M160 700l167 -440v440h100v-700h-100l-167 440v-440h-100v700zM120 766q0 10 3.5 26q3.5 16 11.5 30q12 20 28 26q16 6 30 6q7 0 17 -2q10 -2 26 -8l16 -6q6 -2 14.5 -5q8.5 -3 16.5 -3q14 0 22 10q8 10 6 23l55 0v-3q0 -11 -2.5 -27q-2.5 -16 -10.5 -30q-20 -33 -59 -33q-11 0 -22 2.5q-11 2.5 -24 7.5l-14 5q-12 5 -18.5 7q-6.5 2 -13.5 2q-8 0 -13 -3.5q-5 -3.5 -8 -7.5q-6 -9 -6 -22l-55 0z" />
<glyph unicode="&#210;" horiz-adv-x="462" d="M56 516q0 40 8 77.5q8 37.5 44 71.5q23 21 53.5 33q30.5 12 69.5 12q39 0 69.5 -12q30.5 -12 53.5 -33q36 -34 44 -71.5q8 -37.5 8 -77.5v-332q0 -40 -8 -77.5q-8 -37.5 -44 -71.5q-23 -21 -53.5 -33q-30.5 -12 -69.5 -12q-39 0 -69.5 12q-30.5 12 -53.5 33q-36 34 -44 71.5q-8 37.5 -8 77.5zM306 531q0 16 -3.5 31.5q-3.5 15.5 -17.5 29.5q-8 8 -21.5 14q-13.5 6 -32.5 6q-19 0 -32.5 -6q-13.5 -6 -21.5 -14q-14 -14 -17.5 -29.5q-3.5 -15.5 -3.5 -31.5v-362q0 -16 3.5 -31.5q3.5 -15.5 17.5 -29.5q8 -8 21.5 -14q13.5 -6 32.5 -6q19 0 32.5 6q13.5 6 21.5 14q14 14 17.5 29.5q3.5 15.5 3.5 31.5zM123 869h121l44 -105l-71 0z" />
<glyph unicode="&#211;" horiz-adv-x="462" d="M56 516q0 40 8 77.5q8 37.5 44 71.5q23 21 53.5 33q30.5 12 69.5 12q39 0 69.5 -12q30.5 -12 53.5 -33q36 -34 44 -71.5q8 -37.5 8 -77.5v-332q0 -40 -8 -77.5q-8 -37.5 -44 -71.5q-23 -21 -53.5 -33q-30.5 -12 -69.5 -12q-39 0 -69.5 12q-30.5 12 -53.5 33q-36 34 -44 71.5q-8 37.5 -8 77.5zM306 531q0 16 -3.5 31.5q-3.5 15.5 -17.5 29.5q-8 8 -21.5 14q-13.5 6 -32.5 6q-19 0 -32.5 -6q-13.5 -6 -21.5 -14q-14 -14 -17.5 -29.5q-3.5 -15.5 -3.5 -31.5v-362q0 -16 3.5 -31.5q3.5 -15.5 17.5 -29.5q8 -8 21.5 -14q13.5 -6 32.5 -6q19 0 32.5 6q13.5 6 21.5 14q14 14 17.5 29.5q3.5 15.5 3.5 31.5zM170 764l50 105h121l-106 -105z" />
<glyph unicode="&#212;" horiz-adv-x="462" d="M56 516q0 40 8 77.5q8 37.5 44 71.5q23 21 53.5 33q30.5 12 69.5 12q39 0 69.5 -12q30.5 -12 53.5 -33q36 -34 44 -71.5q8 -37.5 8 -77.5v-332q0 -40 -8 -77.5q-8 -37.5 -44 -71.5q-23 -21 -53.5 -33q-30.5 -12 -69.5 -12q-39 0 -69.5 12q-30.5 12 -53.5 33q-36 34 -44 71.5q-8 37.5 -8 77.5zM306 531q0 16 -3.5 31.5q-3.5 15.5 -17.5 29.5q-8 8 -21.5 14q-13.5 6 -32.5 6q-19 0 -32.5 -6q-13.5 -6 -21.5 -14q-14 -14 -17.5 -29.5q-3.5 -15.5 -3.5 -31.5v-362q0 -16 3.5 -31.5q3.5 -15.5 17.5 -29.5q8 -8 21.5 -14q13.5 -6 32.5 -6q19 0 32.5 6q13.5 6 21.5 14q14 14 17.5 29.5q3.5 15.5 3.5 31.5zM171 764h-64l57 105h134l57 -105h-64l-60 58z" />
<glyph unicode="&#213;" horiz-adv-x="462" d="M56 516q0 40 8 77.5q8 37.5 44 71.5q23 21 53.5 33q30.5 12 69.5 12q39 0 69.5 -12q30.5 -12 53.5 -33q36 -34 44 -71.5q8 -37.5 8 -77.5v-332q0 -40 -8 -77.5q-8 -37.5 -44 -71.5q-23 -21 -53.5 -33q-30.5 -12 -69.5 -12q-39 0 -69.5 12q-30.5 12 -53.5 33q-36 34 -44 71.5q-8 37.5 -8 77.5zM306 531q0 16 -3.5 31.5q-3.5 15.5 -17.5 29.5q-8 8 -21.5 14q-13.5 6 -32.5 6q-19 0 -32.5 -6q-13.5 -6 -21.5 -14q-14 -14 -17.5 -29.5q-3.5 -15.5 -3.5 -31.5v-362q0 -16 3.5 -31.5q3.5 -15.5 17.5 -29.5q8 -8 21.5 -14q13.5 -6 32.5 -6q19 0 32.5 6q13.5 6 21.5 14q14 14 17.5 29.5q3.5 15.5 3.5 31.5zM108 766q0 10 3.5 26q3.5 16 11.5 30q12 20 28 26q16 6 30 6q7 0 17 -2q10 -2 26 -8l16 -6q6 -2 14.5 -5q8.5 -3 16.5 -3q14 0 22 10q8 10 6 23l55 0v-3q0 -11 -2.5 -27q-2.5 -16 -10.5 -30q-20 -33 -59 -33q-11 0 -22 2.5q-11 2.5 -24 7.5l-14 5q-12 5 -18.5 7q-6.5 2 -13.5 2q-8 0 -13 -3.5q-5 -3.5 -8 -7.5q-6 -9 -6 -22l-55 0z" />
<glyph unicode="&#214;" horiz-adv-x="462" d="M56 516q0 40 8 77.5q8 37.5 44 71.5q23 21 53.5 33q30.5 12 69.5 12q39 0 69.5 -12q30.5 -12 53.5 -33q36 -34 44 -71.5q8 -37.5 8 -77.5v-332q0 -40 -8 -77.5q-8 -37.5 -44 -71.5q-23 -21 -53.5 -33q-30.5 -12 -69.5 -12q-39 0 -69.5 12q-30.5 12 -53.5 33q-36 34 -44 71.5q-8 37.5 -8 77.5zM306 531q0 16 -3.5 31.5q-3.5 15.5 -17.5 29.5q-8 8 -21.5 14q-13.5 6 -32.5 6q-19 0 -32.5 -6q-13.5 -6 -21.5 -14q-14 -14 -17.5 -29.5q-3.5 -15.5 -3.5 -31.5v-362q0 -16 3.5 -31.5q3.5 -15.5 17.5 -29.5q8 -8 21.5 -14q13.5 -6 32.5 -6q19 0 32.5 6q13.5 6 21.5 14q14 14 17.5 29.5q3.5 15.5 3.5 31.5zM200 764h-95v100h95zM262 864h95v-100l-95 0z" />
<glyph unicode="&#215;" horiz-adv-x="494" d="M190 291l-132 132l57 57l132 -132l132 132l57 -57l-132 -132l132 -132l-57 -57l-132 132l-132 -132l-57 57z" />
<glyph unicode="&#216;" horiz-adv-x="462" d="M56 516q0 40 8 77.5q8 37.5 44 71.5q23 21 53.5 33q30.5 12 69.5 12q38 0 63.5 -10q25.5 -10 42.5 -21l13 31h65l-33 -79q14 -26 19 -51q5 -25 5 -64v-332q0 -40 -8 -77.5q-8 -37.5 -44 -71.5q-23 -21 -53.5 -33q-30.5 -12 -69.5 -12q-38 0 -63.5 10q-25.5 10 -42.5 21l-13 -31h-65l33 79q-14 26 -19 51q-5 25 -5 64zM306 451l-139 -331q21 -32 64 -32q19 0 32.5 6q13.5 6 21.5 14q14 14 17.5 29.5q3.5 15.5 3.5 31.5zM295 580q-21 32 -64 32q-19 0 -32.5 -6q-13.5 -6 -21.5 -14q-14 -14 -17.5 -29.5q-3.5 -15.5 -3.5 -31.5l0 -282z" />
<glyph unicode="&#217;" horiz-adv-x="454" d="M160 700v-531q0 -36 17 -58.5q17 -22.5 50 -22.5q33 0 50 22.5q17 22.5 17 58.5v531h100v-516q0 -58 -15.5 -95.5q-15.5 -37.5 -40 -59.5q-24.5 -22 -54 -30.5q-29.5 -8.5 -57.5 -8.5q-28 0 -57.5 8.5q-29.5 8.5 -54 30.5q-24.5 22 -40 59.5q-15.5 37.5 -15.5 95.5v516zM119 869h121l44 -105l-71 0z" />
<glyph unicode="&#218;" horiz-adv-x="454" d="M160 700v-531q0 -36 17 -58.5q17 -22.5 50 -22.5q33 0 50 22.5q17 22.5 17 58.5v531h100v-516q0 -58 -15.5 -95.5q-15.5 -37.5 -40 -59.5q-24.5 -22 -54 -30.5q-29.5 -8.5 -57.5 -8.5q-28 0 -57.5 8.5q-29.5 8.5 -54 30.5q-24.5 22 -40 59.5q-15.5 37.5 -15.5 95.5v516zM166 764l50 105h121l-106 -105z" />
<glyph unicode="&#219;" horiz-adv-x="454" d="M160 700v-531q0 -36 17 -58.5q17 -22.5 50 -22.5q33 0 50 22.5q17 22.5 17 58.5v531h100v-516q0 -58 -15.5 -95.5q-15.5 -37.5 -40 -59.5q-24.5 -22 -54 -30.5q-29.5 -8.5 -57.5 -8.5q-28 0 -57.5 8.5q-29.5 8.5 -54 30.5q-24.5 22 -40 59.5q-15.5 37.5 -15.5 95.5v516zM167 764h-64l57 105h134l57 -105h-64l-60 58z" />
<glyph unicode="&#220;" horiz-adv-x="454" d="M160 700v-531q0 -36 17 -58.5q17 -22.5 50 -22.5q33 0 50 22.5q17 22.5 17 58.5v531h100v-516q0 -58 -15.5 -95.5q-15.5 -37.5 -40 -59.5q-24.5 -22 -54 -30.5q-29.5 -8.5 -57.5 -8.5q-28 0 -57.5 8.5q-29.5 8.5 -54 30.5q-24.5 22 -40 59.5q-15.5 37.5 -15.5 95.5v516zM196 764h-95v100h95zM258 864h95v-100l-95 0z" />
<glyph unicode="&#221;" horiz-adv-x="414" d="M257 295v-295h-100v298l-147 402h110l87 -278h6l85 278h106zM146 764l50 105h121l-106 -105z" />
<glyph unicode="&#222;" horiz-adv-x="450" d="M160 570h59q16 0 34 -1q18 -1 36 -5.5q18 -4.5 35.5 -14q17.5 -9.5 34.5 -25.5q34 -35 42.5 -78q8.5 -43 8.5 -82v-21q0 -15 -1 -32.5q-1 -17.5 -5.5 -36.5q-4.5 -19 -13 -38q-8.5 -19 -23.5 -35q-17 -20 -36.5 -31q-19.5 -11 -38.5 -16.5q-19 -5.5 -35.5 -7q-16.5 -1.5 -27.5 -1.5h-69v-145h-100v710h100zM160 235h64q16 0 33 3.5q17 3.5 34 23.5q16 19 17.5 35.5q1.5 16.5 1.5 36.5v46q0 19 -3 41q-3 22 -24 40q-18 16 -37.5 17.5q-19.5 1.5 -40.5 1.5l-45 0z" />
<glyph unicode="&#223;" horiz-adv-x="416" d="M54 562q0 12 1.5 26q1.5 14 6.5 29q5 15 14.5 30q9.5 15 26.5 29q40 34 102 34q27 0 56 -7.5q29 -7.5 50 -24.5q19 -15 35 -43.5q16 -28.5 16 -70.5v-71q0 -9 -2 -27.5q-2 -18.5 -12 -35.5q-16 -29 -52 -40q35 -15 51 -46q8 -16 11.5 -38.5q3.5 -22.5 3.5 -41.5v-87q0 -42 -6 -74.5q-6 -32.5 -35 -61.5q-14 -14 -29.5 -22.5q-15.5 -8.5 -30.5 -12.5q-15 -4 -28 -5q-13 -1 -22 -1h-23v98h21q18 0 29 6.5q11 6.5 16 16q5 9.5 6.5 20q1.5 10.5 1.5 17.5v124q0 3 -0.5 9q-0.5 6 -1.5 13.5q-1 7.5 -3.5 15q-2.5 7.5 -6.5 12.5q-8 10 -17.5 12q-9.5 2 -18.5 2h-16v89h15q8 0 18 2.5q10 2.5 18 11.5q7 8 10 21q3 13 3 26v59q0 8 -2.5 19.5q-2.5 11.5 -13.5 22.5q-6 6 -16 10.5q-10 4.5 -24 4.5q-12 0 -20.5 -5q-8.5 -5 -16.5 -13q-10 -12 -12.5 -24q-2.5 -12 -2.5 -23v-547l-100 0z" />
<glyph unicode="&#224;" horiz-adv-x="405" d="M251 49h-2q-5 -8 -14 -19q-9 -11 -20 -19q-14 -11 -28 -15q-14 -4 -30 -4q-15 0 -36 4.5q-21 4.5 -40 21.5q-23 22 -29.5 53q-6.5 31 -6.5 61q0 13 1 29.5q1 16.5 4 33q3 16.5 9 32.5q6 16 17 29q12 15 28 23.5q16 8.5 32.5 13q16.5 4.5 31.5 5.5q15 1 26 1q5 0 19.5 -0.5q14.5 -0.5 37.5 -2.5l0 52q0 11 -2 21.5q-2 10.5 -11 20.5q-15 16 -40 16q-11 0 -21.5 -4q-10.5 -4 -18.5 -14q-12 -13 -13 -32l-95 0q-1 34 11.5 62q12.5 28 29.5 45q19 19 48 30q29 11 64 11q34 0 61 -11q27 -11 46 -29q27 -27 34 -59q7 -32 7 -58v-347h-100zM251 216q-18 3 -35 3q-12 0 -28 -3.5q-16 -3.5 -28 -17.5q-10 -11 -12.5 -25.5q-2.5 -14.5 -2.5 -26.5q0 -11 2 -21q2 -10 8 -20q14 -23 40 -23q23 0 39.5 15.5q16.5 15.5 16.5 48.5zM102 700h107l44 -122l-57 0z" />
<glyph unicode="&#225;" horiz-adv-x="405" d="M251 49h-2q-5 -8 -14 -19q-9 -11 -20 -19q-14 -11 -28 -15q-14 -4 -30 -4q-15 0 -36 4.5q-21 4.5 -40 21.5q-23 22 -29.5 53q-6.5 31 -6.5 61q0 13 1 29.5q1 16.5 4 33q3 16.5 9 32.5q6 16 17 29q12 15 28 23.5q16 8.5 32.5 13q16.5 4.5 31.5 5.5q15 1 26 1q5 0 19.5 -0.5q14.5 -0.5 37.5 -2.5l0 52q0 11 -2 21.5q-2 10.5 -11 20.5q-15 16 -40 16q-11 0 -21.5 -4q-10.5 -4 -18.5 -14q-12 -13 -13 -32l-95 0q-1 34 11.5 62q12.5 28 29.5 45q19 19 48 30q29 11 64 11q34 0 61 -11q27 -11 46 -29q27 -27 34 -59q7 -32 7 -58v-347h-100zM251 216q-18 3 -35 3q-12 0 -28 -3.5q-16 -3.5 -28 -17.5q-10 -11 -12.5 -25.5q-2.5 -14.5 -2.5 -26.5q0 -11 2 -21q2 -10 8 -20q14 -23 40 -23q23 0 39.5 15.5q16.5 15.5 16.5 48.5zM152 578l44 122h107l-94 -122z" />
<glyph unicode="&#226;" horiz-adv-x="405" d="M251 49h-2q-5 -8 -14 -19q-9 -11 -20 -19q-14 -11 -28 -15q-14 -4 -30 -4q-15 0 -36 4.5q-21 4.5 -40 21.5q-23 22 -29.5 53q-6.5 31 -6.5 61q0 13 1 29.5q1 16.5 4 33q3 16.5 9 32.5q6 16 17 29q12 15 28 23.5q16 8.5 32.5 13q16.5 4.5 31.5 5.5q15 1 26 1q5 0 19.5 -0.5q14.5 -0.5 37.5 -2.5l0 52q0 11 -2 21.5q-2 10.5 -11 20.5q-15 16 -40 16q-11 0 -21.5 -4q-10.5 -4 -18.5 -14q-12 -13 -13 -32l-95 0q-1 34 11.5 62q12.5 28 29.5 45q19 19 48 30q29 11 64 11q34 0 61 -11q27 -11 46 -29q27 -27 34 -59q7 -32 7 -58v-347h-100zM251 216q-18 3 -35 3q-12 0 -28 -3.5q-16 -3.5 -28 -17.5q-10 -11 -12.5 -25.5q-2.5 -14.5 -2.5 -26.5q0 -11 2 -21q2 -10 8 -20q14 -23 40 -23q23 0 39.5 15.5q16.5 15.5 16.5 48.5zM156 578h-57l51 122h118l51 -122h-57l-53 67z" />
<glyph unicode="&#227;" horiz-adv-x="405" d="M251 49h-2q-5 -8 -14 -19q-9 -11 -20 -19q-14 -11 -28 -15q-14 -4 -30 -4q-15 0 -36 4.5q-21 4.5 -40 21.5q-23 22 -29.5 53q-6.5 31 -6.5 61q0 13 1 29.5q1 16.5 4 33q3 16.5 9 32.5q6 16 17 29q12 15 28 23.5q16 8.5 32.5 13q16.5 4.5 31.5 5.5q15 1 26 1q5 0 19.5 -0.5q14.5 -0.5 37.5 -2.5l0 52q0 11 -2 21.5q-2 10.5 -11 20.5q-15 16 -40 16q-11 0 -21.5 -4q-10.5 -4 -18.5 -14q-12 -13 -13 -32l-95 0q-1 34 11.5 62q12.5 28 29.5 45q19 19 48 30q29 11 64 11q34 0 61 -11q27 -11 46 -29q27 -27 34 -59q7 -32 7 -58v-347h-100zM251 216q-18 3 -35 3q-12 0 -28 -3.5q-16 -3.5 -28 -17.5q-10 -11 -12.5 -25.5q-2.5 -14.5 -2.5 -26.5q0 -11 2 -21q2 -10 8 -20q14 -23 40 -23q23 0 39.5 15.5q16.5 15.5 16.5 48.5zM87 584q0 11 3 29.5q3 18.5 12 35.5q11 20 26 28.5q15 8.5 32 8.5q8 0 18 -2.5q10 -2.5 27 -9.5l14 -6q11 -5 17 -7.5q6 -2.5 14 -2.5q14 0 22 12q4 6 5 13q1 7 1 13l55 0v-3q0 -10 -2 -27q-2 -17 -9 -34q-11 -26 -27.5 -35q-16.5 -9 -32.5 -9q-14 0 -27 4.5q-13 4.5 -20 7.5l-14 6q-9 4 -16.5 7q-7.5 3 -15.5 3q-13 0 -21 -12q-6 -11 -6 -26l-55 0z" />
<glyph unicode="&#228;" horiz-adv-x="405" d="M251 49h-2q-5 -8 -14 -19q-9 -11 -20 -19q-14 -11 -28 -15q-14 -4 -30 -4q-15 0 -36 4.5q-21 4.5 -40 21.5q-23 22 -29.5 53q-6.5 31 -6.5 61q0 13 1 29.5q1 16.5 4 33q3 16.5 9 32.5q6 16 17 29q12 15 28 23.5q16 8.5 32.5 13q16.5 4.5 31.5 5.5q15 1 26 1q5 0 19.5 -0.5q14.5 -0.5 37.5 -2.5l0 52q0 11 -2 21.5q-2 10.5 -11 20.5q-15 16 -40 16q-11 0 -21.5 -4q-10.5 -4 -18.5 -14q-12 -13 -13 -32l-95 0q-1 34 11.5 62q12.5 28 29.5 45q19 19 48 30q29 11 64 11q34 0 61 -11q27 -11 46 -29q27 -27 34 -59q7 -32 7 -58v-347h-100zM251 216q-18 3 -35 3q-12 0 -28 -3.5q-16 -3.5 -28 -17.5q-10 -11 -12.5 -25.5q-2.5 -14.5 -2.5 -26.5q0 -11 2 -21q2 -10 8 -20q14 -23 40 -23q23 0 39.5 15.5q16.5 15.5 16.5 48.5zM176 588h-95v95h95zM238 683h95v-95l-95 0z" />
<glyph unicode="&#229;" horiz-adv-x="405" d="M251 49h-2q-5 -8 -14 -19q-9 -11 -20 -19q-14 -11 -28 -15q-14 -4 -30 -4q-15 0 -36 4.5q-21 4.5 -40 21.5q-23 22 -29.5 53q-6.5 31 -6.5 61q0 13 1 29.5q1 16.5 4 33q3 16.5 9 32.5q6 16 17 29q12 15 28 23.5q16 8.5 32.5 13q16.5 4.5 31.5 5.5q15 1 26 1q5 0 19.5 -0.5q14.5 -0.5 37.5 -2.5l0 52q0 11 -2 21.5q-2 10.5 -11 20.5q-15 16 -40 16q-11 0 -21.5 -4q-10.5 -4 -18.5 -14q-12 -13 -13 -32l-95 0q-1 34 11.5 62q12.5 28 29.5 45q19 19 48 30q29 11 64 11q34 0 61 -11q27 -11 46 -29q27 -27 34 -59q7 -32 7 -58v-347h-100zM251 216q-18 3 -35 3q-12 0 -28 -3.5q-16 -3.5 -28 -17.5q-10 -11 -12.5 -25.5q-2.5 -14.5 -2.5 -26.5q0 -11 2 -21q2 -10 8 -20q14 -23 40 -23q23 0 39.5 15.5q16.5 15.5 16.5 48.5zM127 641q0 33 23.5 56.5q23.5 23.5 56.5 23.5q33 0 56.5 -23.5q23.5 -23.5 23.5 -56.5q0 -33 -23.5 -56.5q-23.5 -23.5 -56.5 -23.5q-33 0 -56.5 23.5q-23.5 23.5 -23.5 56.5zt0 0zM177 641q0 -13 8.5 -21.5q8.5 -8.5 21.5 -8.5q13 0 21.5 8.5q8.5 8.5 8.5 21.5q0 13 -8.5 21.5q-8.5 8.5 -21.5 8.5q-13 0 -21.5 -8.5t-8.5 -21.5z" />
<glyph unicode="&#230;" horiz-adv-x="598" d="M50 356q-1 38 12.5 65q13.5 27 29.5 42q15 15 42 28q27 13 69 13q32 0 55.5 -8.5q23.5 -8.5 43.5 -25.5q17 15 40 24.5q23 9.5 57 9.5q32 0 58.5 -9.5q26.5 -9.5 45.5 -26.5q16 -14 26 -30.5q10 -16.5 15.5 -33q5.5 -16.5 7 -32.5q1.5 -16 1.5 -31v-130h-202v-64q0 -11 2 -22.5q2 -11.5 11 -20.5q12 -14 38 -14q26 0 40 21q9 15 9 34l100 0v-4q0 -14 -2 -29.5q-2 -15.5 -8 -31.5q-6 -16 -17 -31.5q-11 -15.5 -29 -28.5q-19 -14 -43 -21q-24 -7 -50 -7q-32 0 -53.5 8.5q-21.5 8.5 -35.5 18.5q-5 4 -14 11.5q-9 7.5 -19 19.5q-7 -9 -17 -18.5q-10 -9.5 -21 -17.5q-17 -11 -39.5 -16.5q-22.5 -5.5 -45.5 -5.5q-15 0 -36 4.5q-21 4.5 -40 21.5q-23 22 -29.5 53q-6.5 31 -6.5 61q0 13 1 29.5q1 16.5 4 33q3 16.5 9 32.5q6 16 17 29q12 15 28 23.5q16 8.5 32.5 13q16.5 4.5 31.5 5.5q15 1 26 1q5 0 19.5 -0.5q14.5 -0.5 37.5 -2.5l0 40q0 16 -1 29q-1 13 -12 25q-16 16 -40 16q-11 0 -21.5 -5q-10.5 -5 -18.5 -13q-2 -2 -6.5 -10q-4.5 -8 -6.5 -22zM251 217q-4 0 -15 1q-11 1 -20 1q-12 0 -28 -3.5q-16 -3.5 -28 -17.5q-10 -11 -12.5 -25.5q-2.5 -14.5 -2.5 -26.5q0 -11 2 -21q2 -10 8 -20q14 -23 40 -23q26 0 42 20q9 11 11.5 22.5q2.5 11.5 2.5 21.5zM453 288v65q0 10 -2.5 20q-2.5 10 -11.5 19q-6 6 -15.5 10q-9.5 4 -21.5 4q-25 0 -39 -17q-8 -9 -10 -19.5q-2 -10.5 -2 -20.5l0 -61z" />
<glyph unicode="&#231;" horiz-adv-x="385" d="M255 346v2q0 9 -2 19q-2 10 -9 20q-5 8 -15 13.5q-10 5.5 -25 5.5q-9 0 -19.5 -3q-10.5 -3 -19.5 -14q-9 -11 -11.5 -23q-2.5 -12 -2.5 -25v-192q0 -11 2.5 -22.5q2.5 -11.5 9.5 -19.5q4 -5 13.5 -11q9.5 -6 27.5 -6q11 0 21.5 3q10.5 3 18.5 14q8 10 9.5 21.5q1.5 11.5 1.5 18.5v1h100v-9q0 -22 -4.5 -40q-4.5 -18 -12 -31.5q-7.5 -13.5 -16.5 -24q-9 -10.5 -17 -17.5q-23 -20 -45.5 -25.5q-22.5 -5.5 -31.5 -6.5l-2 -31q12 0 24.5 -4q12.5 -4 22.5 -12q22 -18 22 -49q0 -21 -8.5 -34.5q-8.5 -13.5 -16.5 -21.5q-13 -11 -28.5 -15.5q-15.5 -4.5 -32.5 -4.5q-48 0 -77 33l37 33q3 -3 6 -4.5q3 -1.5 6 -3.5q10 -4 18 -4q6 0 12 1.5q6 1.5 10 5.5q7 7 7 17q0 12 -9 18q-8 5 -19 5.5q-11 0.5 -20 -1.5l5 71q-26 2 -51.5 12.5q-25.5 10.5 -43.5 29.5q-15 15 -23 31.5q-8 16.5 -11.5 33.5q-3.5 17 -4 34q-0.5 17 -0.5 33v171q0 15 1.5 31.5q1.5 16.5 6 33.5q4.5 17 13.5 33.5q9 16.5 25 30.5q16 14 41 25.5q25 11.5 62 11.5q36 0 66 -11.5q30 -11.5 49 -31.5q20 -21 30 -52q10 -31 10 -60l0 -3z" />
<glyph unicode="&#232;" horiz-adv-x="397" d="M150 147q0 -11 2 -22.5q2 -11.5 11 -20.5q12 -14 38 -14q26 0 40 21q9 15 9 34l100 0v-4q0 -14 -2 -29.5q-2 -15.5 -8 -31.5q-6 -16 -17 -31.5q-11 -15.5 -29 -28.5q-19 -14 -43 -21q-24 -7 -50 -7q-35 0 -65 13q-30 13 -50 35q-13 15 -20.5 31q-7.5 16 -11 32q-3.5 16 -4 31q-0.5 15 -0.5 26v190q0 13 1.5 28.5q1.5 15.5 7 31q5.5 15.5 15 31q9.5 15.5 25.5 29.5q17 15 42 24.5q25 9.5 57 9.5q32 0 58.5 -9.5q26.5 -9.5 45.5 -26.5q16 -14 26 -30.5q10 -16.5 15.5 -33q5.5 -16.5 7 -32.5q1.5 -16 1.5 -31v-130h-202zM252 288v65q0 10 -2.5 20q-2.5 10 -11.5 19q-14 14 -37 14q-25 0 -39 -17q-8 -9 -10 -19.5q-2 -10.5 -2 -20.5v-61zM98 700h107l44 -122l-57 0z" />
<glyph unicode="&#233;" horiz-adv-x="397" d="M150 147q0 -11 2 -22.5q2 -11.5 11 -20.5q12 -14 38 -14q26 0 40 21q9 15 9 34l100 0v-4q0 -14 -2 -29.5q-2 -15.5 -8 -31.5q-6 -16 -17 -31.5q-11 -15.5 -29 -28.5q-19 -14 -43 -21q-24 -7 -50 -7q-35 0 -65 13q-30 13 -50 35q-13 15 -20.5 31q-7.5 16 -11 32q-3.5 16 -4 31q-0.5 15 -0.5 26v190q0 13 1.5 28.5q1.5 15.5 7 31q5.5 15.5 15 31q9.5 15.5 25.5 29.5q17 15 42 24.5q25 9.5 57 9.5q32 0 58.5 -9.5q26.5 -9.5 45.5 -26.5q16 -14 26 -30.5q10 -16.5 15.5 -33q5.5 -16.5 7 -32.5q1.5 -16 1.5 -31v-130h-202zM252 288v65q0 10 -2.5 20q-2.5 10 -11.5 19q-14 14 -37 14q-25 0 -39 -17q-8 -9 -10 -19.5q-2 -10.5 -2 -20.5v-61zM148 578l44 122h107l-94 -122z" />
<glyph unicode="&#234;" horiz-adv-x="397" d="M150 147q0 -11 2 -22.5q2 -11.5 11 -20.5q12 -14 38 -14q26 0 40 21q9 15 9 34l100 0v-4q0 -14 -2 -29.5q-2 -15.5 -8 -31.5q-6 -16 -17 -31.5q-11 -15.5 -29 -28.5q-19 -14 -43 -21q-24 -7 -50 -7q-35 0 -65 13q-30 13 -50 35q-13 15 -20.5 31q-7.5 16 -11 32q-3.5 16 -4 31q-0.5 15 -0.5 26v190q0 13 1.5 28.5q1.5 15.5 7 31q5.5 15.5 15 31q9.5 15.5 25.5 29.5q17 15 42 24.5q25 9.5 57 9.5q32 0 58.5 -9.5q26.5 -9.5 45.5 -26.5q16 -14 26 -30.5q10 -16.5 15.5 -33q5.5 -16.5 7 -32.5q1.5 -16 1.5 -31v-130h-202zM252 288v65q0 10 -2.5 20q-2.5 10 -11.5 19q-14 14 -37 14q-25 0 -39 -17q-8 -9 -10 -19.5q-2 -10.5 -2 -20.5v-61zM157 578h-57l51 122h118l51 -122h-57l-53 67z" />
<glyph unicode="&#235;" horiz-adv-x="397" d="M150 147q0 -11 2 -22.5q2 -11.5 11 -20.5q12 -14 38 -14q26 0 40 21q9 15 9 34l100 0v-4q0 -14 -2 -29.5q-2 -15.5 -8 -31.5q-6 -16 -17 -31.5q-11 -15.5 -29 -28.5q-19 -14 -43 -21q-24 -7 -50 -7q-35 0 -65 13q-30 13 -50 35q-13 15 -20.5 31q-7.5 16 -11 32q-3.5 16 -4 31q-0.5 15 -0.5 26v190q0 13 1.5 28.5q1.5 15.5 7 31q5.5 15.5 15 31q9.5 15.5 25.5 29.5q17 15 42 24.5q25 9.5 57 9.5q32 0 58.5 -9.5q26.5 -9.5 45.5 -26.5q16 -14 26 -30.5q10 -16.5 15.5 -33q5.5 -16.5 7 -32.5q1.5 -16 1.5 -31v-130h-202zM252 288v65q0 10 -2.5 20q-2.5 10 -11.5 19q-14 14 -37 14q-25 0 -39 -17q-8 -9 -10 -19.5q-2 -10.5 -2 -20.5v-61zM172 588h-95v95h95zM234 683h95v-95l-95 0z" />
<glyph unicode="&#236;" horiz-adv-x="208" d="M54 496h100v-496h-100zM4 700h107l44 -122l-57 0z" />
<glyph unicode="&#237;" horiz-adv-x="208" d="M54 496h100v-496h-100zM54 578l44 122h107l-94 -122z" />
<glyph unicode="&#238;" horiz-adv-x="208" d="M54 496h100v-496h-100zM51 578h-57l51 122h118l51 -122h-57l-53 67z" />
<glyph unicode="&#239;" horiz-adv-x="208" d="M54 496h100v-496h-100zM73 588h-95v95h95zM135 683h95v-95l-95 0z" />
<glyph unicode="&#240;" horiz-adv-x="406" d="M352 160q0 -15 -1 -32q-1 -17 -6 -34.5q-5 -17.5 -15 -34.5q-10 -17 -27 -32q-20 -17 -47 -26q-27 -9 -55 -9q-28 0 -55 9q-27 9 -47 26q-17 15 -27 32q-10 17 -15 34.5q-5 17.5 -6 34.5q-1 17 -1 32v231q0 19 5 41q5 22 27 43q14 13 33 21q19 8 48 8q21 0 38 -5.5q17 -5.5 29 -13.5q16 -10 29 -28l2 0v15q0 15 -3.5 23.5q-3.5 8.5 -11.5 19.5q-17 23 -38 37l-147 95l55 63l135 -85q7 -5 16.5 -11.5q9.5 -6.5 19 -15q9.5 -8.5 18.5 -17q9 -8.5 15 -16.5q17 -23 24.5 -60.5q7.5 -37.5 7.5 -73.5zM150 154q0 -33 15 -50q14 -14 36 -14q11 0 20.5 4q9.5 4 15.5 10q15 17 15 50v188q0 33 -15 50q-14 14 -36 14q-22 0 -36 -14q-15 -17 -15 -50z" />
<glyph unicode="&#241;" horiz-adv-x="410" d="M54 496h100v-45q13 18 27.5 28.5q14.5 10.5 28 16q13.5 5.5 24.5 7q11 1.5 19 1.5q26 0 44 -8q18 -8 30 -21q20 -20 24.5 -43q4.5 -23 4.5 -41v-391h-100v351q0 9 -2 19.5q-2 10.5 -11 20.5q-14 15 -35 15q-14 0 -23.5 -5.5q-9.5 -5.5 -14.5 -10.5q-11 -12 -13.5 -25q-2.5 -13 -2.5 -25v-340h-100zM82 584q0 11 3 29.5q3 18.5 12 35.5q11 20 26 28.5q15 8.5 32 8.5q8 0 18 -2.5q10 -2.5 27 -9.5l14 -6q11 -5 17 -7.5q6 -2.5 14 -2.5q14 0 22 12q4 6 5 13q1 7 1 13l55 0v-3q0 -10 -2 -27q-2 -17 -9 -34q-11 -26 -27.5 -35q-16.5 -9 -32.5 -9q-14 0 -27 4.5q-13 4.5 -20 7.5l-14 6q-9 4 -16.5 7q-7.5 3 -15.5 3q-13 0 -21 -12q-6 -11 -6 -26l-55 0z" />
<glyph unicode="&#242;" horiz-adv-x="402" d="M50 336q0 15 1 32q1 17 6 34.5q5 17.5 15 34.5q10 17 27 32q20 17 47 26q27 9 55 9q28 0 55 -9q27 -9 47 -26q17 -15 27 -32q10 -17 15 -34.5q5 -17.5 6 -34.5q1 -17 1 -32v-176q0 -15 -1 -32q-1 -17 -6 -34.5q-5 -17.5 -15 -34.5q-10 -17 -27 -32q-20 -17 -47 -26q-27 -9 -55 -9q-28 0 -55 9q-27 9 -47 26q-17 15 -27 32q-10 17 -15 34.5q-5 17.5 -6 34.5q-1 17 -1 32zM252 342q0 33 -15 50q-14 14 -36 14q-22 0 -36 -14q-15 -17 -15 -50v-188q0 -33 15 -50q14 -14 36 -14q11 0 20.5 4q9.5 4 15.5 10q15 17 15 50zM100 700h107l44 -122l-57 0z" />
<glyph unicode="&#243;" horiz-adv-x="402" d="M50 336q0 15 1 32q1 17 6 34.5q5 17.5 15 34.5q10 17 27 32q20 17 47 26q27 9 55 9q28 0 55 -9q27 -9 47 -26q17 -15 27 -32q10 -17 15 -34.5q5 -17.5 6 -34.5q1 -17 1 -32v-176q0 -15 -1 -32q-1 -17 -6 -34.5q-5 -17.5 -15 -34.5q-10 -17 -27 -32q-20 -17 -47 -26q-27 -9 -55 -9q-28 0 -55 9q-27 9 -47 26q-17 15 -27 32q-10 17 -15 34.5q-5 17.5 -6 34.5q-1 17 -1 32zM252 342q0 33 -15 50q-14 14 -36 14q-22 0 -36 -14q-15 -17 -15 -50v-188q0 -33 15 -50q14 -14 36 -14q11 0 20.5 4q9.5 4 15.5 10q15 17 15 50zM150 578l44 122h107l-94 -122z" />
<glyph unicode="&#244;" horiz-adv-x="402" d="M50 336q0 15 1 32q1 17 6 34.5q5 17.5 15 34.5q10 17 27 32q20 17 47 26q27 9 55 9q28 0 55 -9q27 -9 47 -26q17 -15 27 -32q10 -17 15 -34.5q5 -17.5 6 -34.5q1 -17 1 -32v-176q0 -15 -1 -32q-1 -17 -6 -34.5q-5 -17.5 -15 -34.5q-10 -17 -27 -32q-20 -17 -47 -26q-27 -9 -55 -9q-28 0 -55 9q-27 9 -47 26q-17 15 -27 32q-10 17 -15 34.5q-5 17.5 -6 34.5q-1 17 -1 32zM252 342q0 33 -15 50q-14 14 -36 14q-22 0 -36 -14q-15 -17 -15 -50v-188q0 -33 15 -50q14 -14 36 -14q11 0 20.5 4q9.5 4 15.5 10q15 17 15 50zM148 578h-57l51 122h118l51 -122h-57l-53 67z" />
<glyph unicode="&#245;" horiz-adv-x="402" d="M50 336q0 15 1 32q1 17 6 34.5q5 17.5 15 34.5q10 17 27 32q20 17 47 26q27 9 55 9q28 0 55 -9q27 -9 47 -26q17 -15 27 -32q10 -17 15 -34.5q5 -17.5 6 -34.5q1 -17 1 -32v-176q0 -15 -1 -32q-1 -17 -6 -34.5q-5 -17.5 -15 -34.5q-10 -17 -27 -32q-20 -17 -47 -26q-27 -9 -55 -9q-28 0 -55 9q-27 9 -47 26q-17 15 -27 32q-10 17 -15 34.5q-5 17.5 -6 34.5q-1 17 -1 32zM252 342q0 33 -15 50q-14 14 -36 14q-22 0 -36 -14q-15 -17 -15 -50v-188q0 -33 15 -50q14 -14 36 -14q11 0 20.5 4q9.5 4 15.5 10q15 17 15 50zM87 584q0 11 3 29.5q3 18.5 12 35.5q11 20 26 28.5q15 8.5 32 8.5q8 0 18 -2.5q10 -2.5 27 -9.5l14 -6q11 -5 17 -7.5q6 -2.5 14 -2.5q14 0 22 12q4 6 5 13q1 7 1 13l55 0v-3q0 -10 -2 -27q-2 -17 -9 -34q-11 -26 -27.5 -35q-16.5 -9 -32.5 -9q-14 0 -27 4.5q-13 4.5 -20 7.5l-14 6q-9 4 -16.5 7q-7.5 3 -15.5 3q-13 0 -21 -12q-6 -11 -6 -26l-55 0z" />
<glyph unicode="&#246;" horiz-adv-x="402" d="M50 336q0 15 1 32q1 17 6 34.5q5 17.5 15 34.5q10 17 27 32q20 17 47 26q27 9 55 9q28 0 55 -9q27 -9 47 -26q17 -15 27 -32q10 -17 15 -34.5q5 -17.5 6 -34.5q1 -17 1 -32v-176q0 -15 -1 -32q-1 -17 -6 -34.5q-5 -17.5 -15 -34.5q-10 -17 -27 -32q-20 -17 -47 -26q-27 -9 -55 -9q-28 0 -55 9q-27 9 -47 26q-17 15 -27 32q-10 17 -15 34.5q-5 17.5 -6 34.5q-1 17 -1 32zM252 342q0 33 -15 50q-14 14 -36 14q-22 0 -36 -14q-15 -17 -15 -50v-188q0 -33 15 -50q14 -14 36 -14q11 0 20.5 4q9.5 4 15.5 10q15 17 15 50zM175 588h-95v95h95zM237 683h95v-95l-95 0z" />
<glyph unicode="&#247;" horiz-adv-x="494" d="M199 155q0 20 14 34q14 14 34 14q20 0 34 -14q14 -14 14 -34q0 -20 -14 -34q-14 -14 -34 -14q-20 0 -34 14q-14 14 -14 34zt0 0zM199 427q0 20 14 34q14 14 34 14q20 0 34 -14q14 -14 14 -34q0 -20 -14 -34q-14 -14 -34 -14q-20 0 -34 14q-14 14 -14 34zt0 0zM444 331v-80h-394l0 80z" />
<glyph unicode="&#248;" horiz-adv-x="402" d="M50 336q0 15 1 32q1 17 6 34.5q5 17.5 15 34.5q10 17 27 32q17 14 43 24.5q26 10.5 59 10.5q24 0 40.5 -4.5q16.5 -4.5 28.5 -10.5l6 15h60l-20 -48q26 -29 31 -60.5q5 -31.5 5 -59.5v-176q0 -15 -1 -32q-1 -17 -6 -34.5q-5 -17.5 -15 -34.5q-10 -17 -27 -32q-17 -14 -43 -24.5q-26 -10.5 -59 -10.5q-24 0 -40.5 4.5q-16.5 4.5 -28.5 10.5l-6 -15h-60l20 48q-26 29 -31 60.5q-5 31.5 -5 59.5zM252 299l-82 -199q5 -3 12.5 -6.5q7.5 -3.5 18.5 -3.5q11 0 20.5 4q9.5 4 15.5 10q15 17 15 50zM232 396q-5 3 -12.5 6.5q-7.5 3.5 -18.5 3.5q-22 0 -36 -14q-15 -17 -15 -50l0 -145z" />
<glyph unicode="&#249;" horiz-adv-x="410" d="M356 0h-100v50q-2 -2 -11.5 -14q-9.5 -12 -23.5 -23q-30 -21 -69 -21q-32 0 -50.5 12q-18.5 12 -27.5 25q-12 17 -16 37.5q-4 20.5 -4 38.5v391h100v-351q0 -11 2 -22q2 -11 10 -20q5 -5 12.5 -9q7.5 -4 19.5 -4q14 0 24.5 5q10.5 5 17.5 13q11 12 13.5 25q2.5 13 2.5 23v340h100zM104 700h107l44 -122l-57 0z" />
<glyph unicode="&#250;" horiz-adv-x="410" d="M356 0h-100v50q-2 -2 -11.5 -14q-9.5 -12 -23.5 -23q-30 -21 -69 -21q-32 0 -50.5 12q-18.5 12 -27.5 25q-12 17 -16 37.5q-4 20.5 -4 38.5v391h100v-351q0 -11 2 -22q2 -11 10 -20q5 -5 12.5 -9q7.5 -4 19.5 -4q14 0 24.5 5q10.5 5 17.5 13q11 12 13.5 25q2.5 13 2.5 23v340h100zM154 578l44 122h107l-94 -122z" />
<glyph unicode="&#251;" horiz-adv-x="410" d="M356 0h-100v50q-2 -2 -11.5 -14q-9.5 -12 -23.5 -23q-30 -21 -69 -21q-32 0 -50.5 12q-18.5 12 -27.5 25q-12 17 -16 37.5q-4 20.5 -4 38.5v391h100v-351q0 -11 2 -22q2 -11 10 -20q5 -5 12.5 -9q7.5 -4 19.5 -4q14 0 24.5 5q10.5 5 17.5 13q11 12 13.5 25q2.5 13 2.5 23v340h100zM152 578h-57l51 122h118l51 -122h-57l-53 67z" />
<glyph unicode="&#252;" horiz-adv-x="410" d="M356 0h-100v50q-2 -2 -11.5 -14q-9.5 -12 -23.5 -23q-30 -21 -69 -21q-32 0 -50.5 12q-18.5 12 -27.5 25q-12 17 -16 37.5q-4 20.5 -4 38.5v391h100v-351q0 -11 2 -22q2 -11 10 -20q5 -5 12.5 -9q7.5 -4 19.5 -4q14 0 24.5 5q10.5 5 17.5 13q11 12 13.5 25q2.5 13 2.5 23v340h100zM174 588h-95v95h95zM236 683h95v-95l-95 0z" />
<glyph unicode="&#253;" horiz-adv-x="369" d="M115 496l81 -308h4l62 308h100l-136 -563q-5 -22 -14.5 -53q-9.5 -31 -31.5 -53q-23 -22 -50 -26.5q-27 -4.5 -50 -4.5h-26l-2 93h19q11 0 23.5 3.5q12.5 3.5 23.5 17.5q3 4 7.5 14q4.5 10 10.5 34l16 65l-145 473zM132 578l44 122h107l-94 -122z" />
<glyph unicode="&#254;" horiz-adv-x="406" d="M154 452h1q6 10 15 19q9 9 19 16q14 9 30 13q16 4 31 4q19 0 33 -4.5q14 -4.5 24 -10.5q10 -6 16.5 -12.5q6.5 -6.5 9.5 -10.5q17 -23 20 -51q3 -28 3 -52v-258q0 -18 -4.5 -41q-4.5 -23 -24.5 -43q-15 -16 -33.5 -22.5q-18.5 -6.5 -40.5 -6.5q-22 0 -37 5.5q-15 5.5 -29 13.5q-19 11 -33 29l0 -244h-100v904h100zM154 156q0 -12 2.5 -25q2.5 -13 13.5 -25q5 -5 14.5 -10.5q9.5 -5.5 23.5 -5.5q21 0 35 15q9 10 11 20.5q2 10.5 2 19.5v201q0 13 -1.5 23.5q-1.5 10.5 -11.5 21.5q-14 15 -35 15q-14 0 -23.5 -5.5q-9.5 -5.5 -14.5 -10.5q-11 -12 -13.5 -25q-2.5 -13 -2.5 -25z" />
<glyph unicode="&#255;" horiz-adv-x="369" d="M115 496l81 -308h4l62 308h100l-136 -563q-5 -22 -14.5 -53q-9.5 -31 -31.5 -53q-23 -22 -50 -26.5q-27 -4.5 -50 -4.5h-26l-2 93h19q11 0 23.5 3.5q12.5 3.5 23.5 17.5q3 4 7.5 14q4.5 10 10.5 34l16 65l-145 473zM161 588h-95v95h95zM223 683h95v-95l-95 0z" />
<glyph unicode="&#256;" horiz-adv-x="414" d="M304 0l-33 150h-128l-33 -150h-100l153 700h88l153 -700zM205 505l-52 -266h106zM320 824v-60h-224l0 60z" />
<glyph unicode="&#257;" horiz-adv-x="405" d="M251 49h-2q-5 -8 -14 -19q-9 -11 -20 -19q-14 -11 -28 -15q-14 -4 -30 -4q-15 0 -36 4.5q-21 4.5 -40 21.5q-23 22 -29.5 53q-6.5 31 -6.5 61q0 13 1 29.5q1 16.5 4 33q3 16.5 9 32.5q6 16 17 29q12 15 28 23.5q16 8.5 32.5 13q16.5 4.5 31.5 5.5q15 1 26 1q5 0 19.5 -0.5q14.5 -0.5 37.5 -2.5l0 52q0 11 -2 21.5q-2 10.5 -11 20.5q-15 16 -40 16q-11 0 -21.5 -4q-10.5 -4 -18.5 -14q-12 -13 -13 -32l-95 0q-1 34 11.5 62q12.5 28 29.5 45q19 19 48 30q29 11 64 11q34 0 61 -11q27 -11 46 -29q27 -27 34 -59q7 -32 7 -58v-347h-100zM251 216q-18 3 -35 3q-12 0 -28 -3.5q-16 -3.5 -28 -17.5q-10 -11 -12.5 -25.5q-2.5 -14.5 -2.5 -26.5q0 -11 2 -21q2 -10 8 -20q14 -23 40 -23q23 0 39.5 15.5q16.5 15.5 16.5 48.5zM319 668v-70h-224l0 70z" />
<glyph unicode="&#258;" horiz-adv-x="414" d="M304 0l-33 150h-128l-33 -150h-100l153 700h88l153 -700zM205 505l-52 -266h106zM321 864q0 -39 -19 -63q-15 -19 -42 -29q-27 -10 -59 -10q-32 0 -59 10q-27 10 -42 29q-19 24 -19 63v5h54v-3q0 -14 6.5 -21.5q6.5 -7.5 10.5 -10.5q10 -7 24 -9.5q14 -2.5 25 -2.5q11 0 25 2.5q14 2.5 24 9.5q4 3 10.5 10.5q6.5 7.5 6.5 21.5v3l54 0z" />
<glyph unicode="&#259;" horiz-adv-x="405" d="M251 49h-2q-5 -8 -14 -19q-9 -11 -20 -19q-14 -11 -28 -15q-14 -4 -30 -4q-15 0 -36 4.5q-21 4.5 -40 21.5q-23 22 -29.5 53q-6.5 31 -6.5 61q0 13 1 29.5q1 16.5 4 33q3 16.5 9 32.5q6 16 17 29q12 15 28 23.5q16 8.5 32.5 13q16.5 4.5 31.5 5.5q15 1 26 1q5 0 19.5 -0.5q14.5 -0.5 37.5 -2.5l0 52q0 11 -2 21.5q-2 10.5 -11 20.5q-15 16 -40 16q-11 0 -21.5 -4q-10.5 -4 -18.5 -14q-12 -13 -13 -32l-95 0q-1 34 11.5 62q12.5 28 29.5 45q19 19 48 30q29 11 64 11q34 0 61 -11q27 -11 46 -29q27 -27 34 -59q7 -32 7 -58v-347h-100zM251 216q-18 3 -35 3q-12 0 -28 -3.5q-16 -3.5 -28 -17.5q-10 -11 -12.5 -25.5q-2.5 -14.5 -2.5 -26.5q0 -11 2 -21q2 -10 8 -20q14 -23 40 -23q23 0 39.5 15.5q16.5 15.5 16.5 48.5zM330 694q0 -17 -4 -37q-4 -20 -15 -36q-10 -15 -33 -30q-23 -15 -68 -15q-45 0 -68 15q-23 15 -33 30q-11 16 -15 36q-4 20 -4 37v6h54v-3q0 -13 5.5 -22.5q5.5 -9.5 11.5 -14.5q11 -9 24.5 -11.5q13.5 -2.5 24.5 -2.5q11 0 24.5 2.5q13.5 2.5 24.5 11.5q6 5 11.5 14.5q5.5 9.5 5.5 22.5v3l54 0z" />
<glyph unicode="&#260;" horiz-adv-x="414" d="M391 0l-8 -6q-6 -5 -13.5 -10q-7.5 -5 -16.5 -13q-8 -7 -13.5 -15q-5.5 -8 -5.5 -21q0 -11 7.5 -20q7.5 -9 24.5 -9q12 0 20.5 4q8.5 4 13.5 9l32 -32q-22 -25 -43 -30.5q-21 -5.5 -32 -5.5q-25 0 -41.5 7.5q-16.5 7.5 -26 18q-9.5 10.5 -13 23q-3.5 12.5 -3.5 22.5q0 15 6 26q6 11 14 19.5q8 8.5 17 14.5q9 6 15 10l12 8h-33l-33 150h-128l-33 -150h-100l153 700h88l153 -700zM205 505l-52 -266l106 0z" />
<glyph unicode="&#261;" horiz-adv-x="405" d="M251 49h-2q-5 -8 -14 -19q-9 -11 -20 -19q-14 -11 -28 -15q-14 -4 -30 -4q-15 0 -36 4.5q-21 4.5 -40 21.5q-23 22 -29.5 53q-6.5 31 -6.5 61q0 13 1 29.5q1 16.5 4 33q3 16.5 9 32.5q6 16 17 29q12 15 28 23.5q16 8.5 32.5 13q16.5 4.5 31.5 5.5q15 1 26 1q5 0 19.5 -0.5q14.5 -0.5 37.5 -2.5l0 52q0 11 -2 21.5q-2 10.5 -11 20.5q-16 16 -40 16q-11 0 -21.5 -5q-10.5 -5 -18.5 -13q-2 -2 -6.5 -10q-4.5 -8 -6.5 -22l-95 0q-1 38 12.5 65q13.5 27 29.5 42q19 19 47.5 30q28.5 11 63.5 11q34 0 61 -11q27 -11 46 -29q27 -27 34 -59q7 -32 7 -58v-347l-13 -7q-8 -5 -17.5 -11q-9.5 -6 -14.5 -11q-8 -6 -13.5 -14.5q-5.5 -8.5 -5.5 -21.5q0 -14 9 -21q8 -8 23 -8q12 0 20.5 4.5q8.5 4.5 13.5 9.5l32 -33q-22 -25 -43 -30.5q-21 -5.5 -32 -5.5q-14 0 -31.5 3q-17.5 3 -31.5 17q-11 11 -16 24q-5 13 -5 27q0 13 4.5 23.5q4.5 10.5 12.5 18.5q6 7 15.5 15q9.5 8 19.5 13l14 8h-41zM250 217q-4 0 -15 1q-11 1 -19 1q-12 0 -28 -3.5q-16 -3.5 -28 -17.5q-10 -11 -12.5 -25.5q-2.5 -14.5 -2.5 -26.5q0 -11 2 -21q2 -10 8 -20q14 -23 40 -23q17 0 27 7q10 7 15 13q13 18 13 44z" />
<glyph unicode="&#262;" horiz-adv-x="436" d="M291 541q0 11 -3 23.5q-3 12.5 -10 22.5q-4 5 -16 15q-12 10 -36 10q-20 0 -32 -7q-12 -7 -20 -16q-12 -15 -14.5 -33q-2.5 -18 -2.5 -36v-345q0 -17 1.5 -32.5q1.5 -15.5 11.5 -29.5q5 -8 17.5 -16.5q12.5 -8.5 33.5 -8.5q17 0 32 6q15 6 24 18q4 5 9 18q5 13 5 39v25h100v-29q0 -52 -14 -83q-14 -31 -28 -45q-16 -17 -47.5 -32q-31.5 -15 -83.5 -15q-50 0 -79.5 16.5q-29.5 16.5 -46.5 36.5q-27 32 -31 65.5q-4 33.5 -4 60.5v363q0 34 8.5 71q8.5 37 42.5 66q23 21 54.5 31q31.5 10 59.5 10q32 0 65 -11.5q33 -11.5 56 -33.5q19 -19 32 -49q13 -30 13 -67v-48h-97zM158 764l50 105h121l-106 -105z" />
<glyph unicode="&#263;" horiz-adv-x="385" d="M255 346v2q0 9 -2 19q-2 10 -9 20q-5 8 -15 13.5q-10 5.5 -25 5.5q-9 0 -19.5 -3q-10.5 -3 -19.5 -14q-9 -11 -11.5 -23q-2.5 -12 -2.5 -25v-192q0 -11 2.5 -22.5q2.5 -11.5 9.5 -19.5q4 -5 13.5 -11q9.5 -6 27.5 -6q11 0 21.5 3q10.5 3 18.5 14q8 10 9.5 21.5q1.5 11.5 1.5 18.5v1h100v-9q0 -22 -4.5 -40q-4.5 -18 -12 -31.5q-7.5 -13.5 -16.5 -24q-9 -10.5 -17 -17.5q-17 -14 -41.5 -24q-24.5 -10 -58.5 -10q-34 0 -64.5 11q-30.5 11 -50.5 32q-15 15 -23 31.5q-8 16.5 -11.5 33.5q-3.5 17 -4 34q-0.5 17 -0.5 33v171q0 15 1.5 31.5q1.5 16.5 6 33.5q4.5 17 13.5 33.5q9 16.5 25 30.5q16 14 41 25.5q25 11.5 62 11.5q36 0 66 -11.5q30 -11.5 49 -31.5q20 -21 30 -52q10 -31 10 -60v-3zM162 578l44 122h107l-94 -122z" />
<glyph unicode="&#264;" horiz-adv-x="436" d="M291 541q0 11 -3 23.5q-3 12.5 -10 22.5q-4 5 -16 15q-12 10 -36 10q-20 0 -32 -7q-12 -7 -20 -16q-12 -15 -14.5 -33q-2.5 -18 -2.5 -36v-345q0 -17 1.5 -32.5q1.5 -15.5 11.5 -29.5q5 -8 17.5 -16.5q12.5 -8.5 33.5 -8.5q17 0 32 6q15 6 24 18q4 5 9 18q5 13 5 39v25h100v-29q0 -52 -14 -83q-14 -31 -28 -45q-16 -17 -47.5 -32q-31.5 -15 -83.5 -15q-50 0 -79.5 16.5q-29.5 16.5 -46.5 36.5q-27 32 -31 65.5q-4 33.5 -4 60.5v363q0 34 8.5 71q8.5 37 42.5 66q23 21 54.5 31q31.5 10 59.5 10q32 0 65 -11.5q33 -11.5 56 -33.5q19 -19 32 -49q13 -30 13 -67v-48h-97zM159 764h-64l57 105h134l57 -105h-64l-60 58z" />
<glyph unicode="&#265;" horiz-adv-x="385" d="M255 346v2q0 9 -2 19q-2 10 -9 20q-5 8 -15 13.5q-10 5.5 -25 5.5q-9 0 -19.5 -3q-10.5 -3 -19.5 -14q-9 -11 -11.5 -23q-2.5 -12 -2.5 -25v-192q0 -11 2.5 -22.5q2.5 -11.5 9.5 -19.5q4 -5 13.5 -11q9.5 -6 27.5 -6q11 0 21.5 3q10.5 3 18.5 14q8 10 9.5 21.5q1.5 11.5 1.5 18.5v1h100v-9q0 -22 -4.5 -40q-4.5 -18 -12 -31.5q-7.5 -13.5 -16.5 -24q-9 -10.5 -17 -17.5q-17 -14 -41.5 -24q-24.5 -10 -58.5 -10q-34 0 -64.5 11q-30.5 11 -50.5 32q-15 15 -23 31.5q-8 16.5 -11.5 33.5q-3.5 17 -4 34q-0.5 17 -0.5 33v171q0 15 1.5 31.5q1.5 16.5 6 33.5q4.5 17 13.5 33.5q9 16.5 25 30.5q16 14 41 25.5q25 11.5 62 11.5q36 0 66 -11.5q30 -11.5 49 -31.5q20 -21 30 -52q10 -31 10 -60v-3zM156 578h-57l51 122h118l51 -122h-57l-53 67z" />
<glyph unicode="&#266;" horiz-adv-x="436" d="M291 541q0 11 -3 23.5q-3 12.5 -10 22.5q-4 5 -16 15q-12 10 -36 10q-20 0 -32 -7q-12 -7 -20 -16q-12 -15 -14.5 -33q-2.5 -18 -2.5 -36v-345q0 -17 1.5 -32.5q1.5 -15.5 11.5 -29.5q5 -8 17.5 -16.5q12.5 -8.5 33.5 -8.5q17 0 32 6q15 6 24 18q4 5 9 18q5 13 5 39v25h100v-29q0 -52 -14 -83q-14 -31 -28 -45q-16 -17 -47.5 -32q-31.5 -15 -83.5 -15q-50 0 -79.5 16.5q-29.5 16.5 -46.5 36.5q-27 32 -31 65.5q-4 33.5 -4 60.5v363q0 34 8.5 71q8.5 37 42.5 66q23 21 54.5 31q31.5 10 59.5 10q32 0 65 -11.5q33 -11.5 56 -33.5q19 -19 32 -49q13 -30 13 -67v-48h-97zM274 864v-100h-110l0 100z" />
<glyph unicode="&#267;" horiz-adv-x="385" d="M255 346v2q0 9 -2 19q-2 10 -9 20q-5 8 -15 13.5q-10 5.5 -25 5.5q-9 0 -19.5 -3q-10.5 -3 -19.5 -14q-9 -11 -11.5 -23q-2.5 -12 -2.5 -25v-192q0 -11 2.5 -22.5q2.5 -11.5 9.5 -19.5q4 -5 13.5 -11q9.5 -6 27.5 -6q11 0 21.5 3q10.5 3 18.5 14q8 10 9.5 21.5q1.5 11.5 1.5 18.5v1h100v-9q0 -22 -4.5 -40q-4.5 -18 -12 -31.5q-7.5 -13.5 -16.5 -24q-9 -10.5 -17 -17.5q-17 -14 -41.5 -24q-24.5 -10 -58.5 -10q-34 0 -64.5 11q-30.5 11 -50.5 32q-15 15 -23 31.5q-8 16.5 -11.5 33.5q-3.5 17 -4 34q-0.5 17 -0.5 33v171q0 15 1.5 31.5q1.5 16.5 6 33.5q4.5 17 13.5 33.5q9 16.5 25 30.5q16 14 41 25.5q25 11.5 62 11.5q36 0 66 -11.5q30 -11.5 49 -31.5q20 -21 30 -52q10 -31 10 -60v-3zM248 686v-98h-100l0 98z" />
<glyph unicode="&#268;" horiz-adv-x="436" d="M291 541q0 11 -3 23.5q-3 12.5 -10 22.5q-4 5 -16 15q-12 10 -36 10q-20 0 -32 -7q-12 -7 -20 -16q-12 -15 -14.5 -33q-2.5 -18 -2.5 -36v-345q0 -17 1.5 -32.5q1.5 -15.5 11.5 -29.5q5 -8 17.5 -16.5q12.5 -8.5 33.5 -8.5q17 0 32 6q15 6 24 18q4 5 9 18q5 13 5 39v25h100v-29q0 -52 -14 -83q-14 -31 -28 -45q-16 -17 -47.5 -32q-31.5 -15 -83.5 -15q-50 0 -79.5 16.5q-29.5 16.5 -46.5 36.5q-27 32 -31 65.5q-4 33.5 -4 60.5v363q0 34 8.5 71q8.5 37 42.5 66q23 21 54.5 31q31.5 10 59.5 10q32 0 65 -11.5q33 -11.5 56 -33.5q19 -19 32 -49q13 -30 13 -67v-48h-97zM279 869h64l-57 -105h-134l-57 105h64l60 -58z" />
<glyph unicode="&#269;" horiz-adv-x="385" d="M255 346v2q0 9 -2 19q-2 10 -9 20q-5 8 -15 13.5q-10 5.5 -25 5.5q-9 0 -19.5 -3q-10.5 -3 -19.5 -14q-9 -11 -11.5 -23q-2.5 -12 -2.5 -25v-192q0 -11 2.5 -22.5q2.5 -11.5 9.5 -19.5q4 -5 13.5 -11q9.5 -6 27.5 -6q11 0 21.5 3q10.5 3 18.5 14q8 10 9.5 21.5q1.5 11.5 1.5 18.5v1h100v-9q0 -22 -4.5 -40q-4.5 -18 -12 -31.5q-7.5 -13.5 -16.5 -24q-9 -10.5 -17 -17.5q-17 -14 -41.5 -24q-24.5 -10 -58.5 -10q-34 0 -64.5 11q-30.5 11 -50.5 32q-15 15 -23 31.5q-8 16.5 -11.5 33.5q-3.5 17 -4 34q-0.5 17 -0.5 33v171q0 15 1.5 31.5q1.5 16.5 6 33.5q4.5 17 13.5 33.5q9 16.5 25 30.5q16 14 41 25.5q25 11.5 62 11.5q36 0 66 -11.5q30 -11.5 49 -31.5q20 -21 30 -52q10 -31 10 -60v-3zM266 700h57l-51 -122h-118l-51 122h57l53 -67z" />
<glyph unicode="&#270;" horiz-adv-x="451" d="M195 700q16 0 34.5 -1q18.5 -1 38 -5q19.5 -4 38 -12.5q18.5 -8.5 35.5 -23.5q19 -18 30 -39.5q11 -21.5 16 -42.5q5 -21 6.5 -39.5q1.5 -18.5 1.5 -29.5v-309q0 -36 -7.5 -73q-7.5 -37 -37.5 -70q-17 -18 -35.5 -29q-18.5 -11 -37 -16.5q-18.5 -5.5 -36 -7.5q-17.5 -2 -32.5 -2h-149v700zM160 98h45q16 0 34 4q18 4 33 20q16 17 19.5 41q3.5 24 3.5 41v310q0 15 -3.5 32.5q-3.5 17.5 -15.5 32.5q-14 17 -30 20q-16 3 -35 3h-51zM268 869h64l-57 -105h-134l-57 105h64l60 -58z" />
<glyph unicode="&#271;" horiz-adv-x="480" d="M256 44h-1q-6 -10 -15 -19q-9 -9 -19 -16q-14 -9 -30 -13q-16 -4 -31 -4q-19 0 -33 4.5q-14 4.5 -24 10.5q-10 6 -16.5 12.5q-6.5 6.5 -9.5 10.5q-17 23 -20 51q-3 28 -3 52v258q0 18 4.5 41q4.5 23 24.5 43q15 16 33.5 22.5q18.5 6.5 40.5 6.5q22 0 37 -5.5q15 -5.5 29 -13.5q19 -11 33 -29l0 244h100v-700h-100zM256 340q0 12 -2.5 25q-2.5 13 -13.5 25q-5 5 -14.5 10.5q-9.5 5.5 -23.5 5.5q-22 0 -35 -15q-9 -10 -11 -20.5q-2 -10.5 -2 -19.5v-201q0 -13 1.5 -23.5q1.5 -10.5 11.5 -21.5q13 -15 35 -15q14 0 23.5 5.5q9.5 5.5 14.5 10.5q11 12 13.5 25q2.5 13 2.5 25zM503 700v-96l-100 -80l0 176z" />
<glyph unicode="&#272;" horiz-adv-x="454" d="M198 700q16 0 34.5 -1q18.5 -1 38 -5q19.5 -4 38 -12.5q18.5 -8.5 35.5 -23.5q19 -18 30 -39.5q11 -21.5 16 -42.5q5 -21 6.5 -39.5q1.5 -18.5 1.5 -29.5v-309q0 -36 -7.5 -73q-7.5 -37 -37.5 -70q-17 -18 -35.5 -29q-18.5 -11 -37 -16.5q-18.5 -5.5 -36 -7.5q-17.5 -2 -32.5 -2h-149v319h-53v70h53v311zM163 389h57v-70h-57v-221h45q16 0 34 4q18 4 33 20q16 17 19.5 41q3.5 24 3.5 41v310q0 15 -3.5 32.5q-3.5 17.5 -15.5 32.5q-14 17 -30 20q-16 3 -35 3l-51 0z" />
<glyph unicode="&#273;" horiz-adv-x="449" d="M256 44h-1q-6 -10 -15 -19q-9 -9 -19 -16q-14 -9 -30 -13q-16 -4 -31 -4q-19 0 -33 4.5q-14 4.5 -24 10.5q-10 6 -16.5 12.5q-6.5 6.5 -9.5 10.5q-17 23 -20 51q-3 28 -3 52v258q0 18 4.5 41q4.5 23 24.5 43q15 16 33.5 22.5q18.5 6.5 40.5 6.5q22 0 37 -5.5q15 -5.5 29 -13.5q19 -11 33 -29l0 93h-104v60h104v91h100v-91h48v-60h-48v-549h-100zM256 340q0 12 -2.5 25q-2.5 13 -13.5 25q-5 5 -14.5 10.5q-9.5 5.5 -23.5 5.5q-22 0 -35 -15q-9 -10 -11 -20.5q-2 -10.5 -2 -19.5v-201q0 -13 1.5 -23.5q1.5 -10.5 11.5 -21.5q13 -15 35 -15q14 0 23.5 5.5q9.5 5.5 14.5 10.5q11 12 13.5 25q2.5 13 2.5 25z" />
<glyph unicode="&#274;" horiz-adv-x="395" d="M60 700h297v-95h-197v-206h174v-90h-174v-214h200v-95h-300zM309 824v-60h-224l0 60z" />
<glyph unicode="&#275;" horiz-adv-x="397" d="M150 147q0 -11 2 -22.5q2 -11.5 11 -20.5q12 -14 38 -14q26 0 40 21q9 15 9 34l100 0v-4q0 -14 -2 -29.5q-2 -15.5 -8 -31.5q-6 -16 -17 -31.5q-11 -15.5 -29 -28.5q-19 -14 -43 -21q-24 -7 -50 -7q-35 0 -65 13q-30 13 -50 35q-13 15 -20.5 31q-7.5 16 -11 32q-3.5 16 -4 31q-0.5 15 -0.5 26v190q0 13 1.5 28.5q1.5 15.5 7 31q5.5 15.5 15 31q9.5 15.5 25.5 29.5q17 15 42 24.5q25 9.5 57 9.5q32 0 58.5 -9.5q26.5 -9.5 45.5 -26.5q16 -14 26 -30.5q10 -16.5 15.5 -33q5.5 -16.5 7 -32.5q1.5 -16 1.5 -31v-130h-202zM252 288v65q0 10 -2.5 20q-2.5 10 -11.5 19q-14 14 -37 14q-25 0 -39 -17q-8 -9 -10 -19.5q-2 -10.5 -2 -20.5v-61zM317 668v-70h-224l0 70z" />
<glyph unicode="&#278;" horiz-adv-x="395" d="M60 700h297v-95h-197v-206h174v-90h-174v-214h200v-95h-300zM252 864v-100h-110l0 100z" />
<glyph unicode="&#279;" horiz-adv-x="397" d="M150 147q0 -11 2 -22.5q2 -11.5 11 -20.5q12 -14 38 -14q26 0 40 21q9 15 9 34l100 0v-4q0 -14 -2 -29.5q-2 -15.5 -8 -31.5q-6 -16 -17 -31.5q-11 -15.5 -29 -28.5q-19 -14 -43 -21q-24 -7 -50 -7q-35 0 -65 13q-30 13 -50 35q-13 15 -20.5 31q-7.5 16 -11 32q-3.5 16 -4 31q-0.5 15 -0.5 26v190q0 13 1.5 28.5q1.5 15.5 7 31q5.5 15.5 15 31q9.5 15.5 25.5 29.5q17 15 42 24.5q25 9.5 57 9.5q32 0 58.5 -9.5q26.5 -9.5 45.5 -26.5q16 -14 26 -30.5q10 -16.5 15.5 -33q5.5 -16.5 7 -32.5q1.5 -16 1.5 -31v-130h-202zM252 288v65q0 10 -2.5 20q-2.5 10 -11.5 19q-14 14 -37 14q-25 0 -39 -17q-8 -9 -10 -19.5q-2 -10.5 -2 -20.5v-61zM248 686v-98h-100l0 98z" />
<glyph unicode="&#280;" horiz-adv-x="395" d="M60 700h297v-95h-197v-206h174v-90h-174v-214h200v-95h-66l-8 -6q-6 -5 -13.5 -10q-7.5 -5 -16.5 -13q-8 -7 -13.5 -15q-5.5 -8 -5.5 -21q0 -11 7.5 -20q7.5 -9 24.5 -9q12 0 20.5 4q8.5 4 13.5 9l32 -32q-22 -25 -43 -30.5q-21 -5.5 -32 -5.5q-25 0 -41.5 7.5q-16.5 7.5 -26 18q-9.5 10.5 -13 23q-3.5 12.5 -3.5 22.5q0 15 6 26q6 11 14 19.5q8 8.5 17 14.5q9 6 15 10l12 8l-180 0z" />
<glyph unicode="&#281;" horiz-adv-x="397" d="M150 147q0 -8 2 -19.5q2 -11.5 11 -20.5q6 -7 16 -10q10 -3 20 -3q14 0 23.5 5.5q9.5 5.5 15.5 13.5q5 7 7.5 15.5q2.5 8.5 2.5 16.5l102 0v-4q0 -29 -9 -55q-9 -26 -23 -43q-10 -11 -24 -21.5q-14 -10.5 -28 -16.5l-15 -11q-6 -5 -13.5 -10q-7.5 -5 -16.5 -13q-8 -7 -13.5 -15q-5.5 -8 -5.5 -21q0 -11 7.5 -20q7.5 -9 24.5 -9q12 0 20.5 4q8.5 4 13.5 9l32 -32q-14 -16 -29 -24q-12 -7 -22.5 -9.5q-10.5 -2.5 -23.5 -2.5q-41 0 -63 20q-11 10 -16 23.5q-5 13.5 -5 27.5q0 13 4.5 23.5q4.5 10.5 12.5 18.5q9 10 28 23l8 5q-35 2 -63 15q-28 13 -45 33q-13 15 -20.5 31q-7.5 16 -11 32q-3.5 16 -4 31q-0.5 15 -0.5 26v190q0 13 1.5 28.5q1.5 15.5 7 31q5.5 15.5 15 31q9.5 15.5 25.5 29.5q17 15 42 24.5q25 9.5 57 9.5q32 0 58.5 -9.5q26.5 -9.5 45.5 -26.5q16 -14 26 -30.5q10 -16.5 15.5 -33q5.5 -16.5 7 -32.5q1.5 -16 1.5 -31v-130h-202zM252 288v65q0 10 -2.5 20q-2.5 10 -11.5 19q-14 14 -37 14q-25 0 -39 -17q-8 -9 -10 -19.5q-2 -10.5 -2 -20.5l0 -61z" />
<glyph unicode="&#282;" horiz-adv-x="395" d="M60 700h297v-95h-197v-206h174v-90h-174v-214h200v-95h-300zM257 869h64l-57 -105h-134l-57 105h64l60 -58z" />
<glyph unicode="&#283;" horiz-adv-x="397" d="M150 147q0 -11 2 -22.5q2 -11.5 11 -20.5q12 -14 38 -14q26 0 40 21q9 15 9 34l100 0v-4q0 -14 -2 -29.5q-2 -15.5 -8 -31.5q-6 -16 -17 -31.5q-11 -15.5 -29 -28.5q-19 -14 -43 -21q-24 -7 -50 -7q-35 0 -65 13q-30 13 -50 35q-13 15 -20.5 31q-7.5 16 -11 32q-3.5 16 -4 31q-0.5 15 -0.5 26v190q0 13 1.5 28.5q1.5 15.5 7 31q5.5 15.5 15 31q9.5 15.5 25.5 29.5q17 15 42 24.5q25 9.5 57 9.5q32 0 58.5 -9.5q26.5 -9.5 45.5 -26.5q16 -14 26 -30.5q10 -16.5 15.5 -33q5.5 -16.5 7 -32.5q1.5 -16 1.5 -31v-130h-202zM252 288v65q0 10 -2.5 20q-2.5 10 -11.5 19q-14 14 -37 14q-25 0 -39 -17q-8 -9 -10 -19.5q-2 -10.5 -2 -20.5v-61zM258 700h57l-51 -122h-118l-51 122h57l53 -67z" />
<glyph unicode="&#284;" horiz-adv-x="461" d="M329 54q-11 -19 -24 -30q-13 -11 -24 -17q-22 -12 -43.5 -14.5q-21.5 -2.5 -34.5 -2.5q-27 0 -56.5 9.5q-29.5 9.5 -54.5 40.5q-24 30 -30 64q-6 34 -6 58v354q0 32 5 64q5 32 28 64q15 21 33.5 34q18.5 13 37.5 20q19 7 37.5 9.5q18.5 2.5 32.5 2.5q39 0 71 -12q32 -12 53 -33q20 -20 35.5 -54q15.5 -34 15.5 -83v-28h-100v35q0 13 -3 28q-3 15 -17 29q-8 8 -21 14q-13 6 -33 6q-20 0 -33.5 -7q-13.5 -7 -22.5 -18q-14 -17 -16.5 -36q-2.5 -19 -2.5 -38v-328q0 -16 2.5 -36q2.5 -20 14.5 -36q9 -11 23.5 -18q14.5 -7 32.5 -7q16 0 32 7.5q16 7.5 26 20.5q14 17 16 40q2 23 2 42v94h-85v90h185v-382h-50zM170 764h-64l57 105h134l57 -105h-64l-60 58z" />
<glyph unicode="&#285;" horiz-adv-x="406" d="M352 496v-542q0 -30 -6 -60.5q-6 -30.5 -32 -57.5q-15 -17 -43 -31q-28 -14 -72 -14q-43 0 -70 14.5q-27 14.5 -41 31.5q-16 18 -26 46q-10 28 -12 57l100 0q-1 -11 3 -20.5q4 -9.5 10 -16.5q8 -9 18.5 -11.5q10.5 -2.5 18.5 -2.5q16 0 26 5.5q10 5.5 15 13.5q7 10 9 24q2 14 2 29v84q-14 -18 -33 -29q-14 -8 -29 -13.5q-15 -5.5 -37 -5.5q-22 0 -40.5 6.5q-18.5 6.5 -33.5 22.5q-20 20 -24.5 43q-4.5 23 -4.5 41v253q0 24 3 52q3 28 20 51q3 4 9.5 10.5q6.5 6.5 16.5 12.5q10 6 24 10.5q14 4.5 33 4.5q15 0 31 -4q16 -4 30 -13q10 -7 19 -16q9 -9 15 -19l1 0v44zM252 340q0 12 -2.5 25q-2.5 13 -13.5 25q-5 5 -14.5 10.5q-9.5 5.5 -23.5 5.5q-21 0 -35 -15q-9 -11 -11 -22q-2 -11 -2 -23v-196q0 -8 2 -18.5q2 -10.5 11 -21.5q14 -15 35 -15q14 0 23.5 5.5q9.5 5.5 14.5 10.5q11 12 13.5 25q2.5 13 2.5 25zM164 578h-57l51 122h118l51 -122h-57l-53 67z" />
<glyph unicode="&#286;" horiz-adv-x="461" d="M329 54q-11 -19 -24 -30q-13 -11 -24 -17q-22 -12 -43.5 -14.5q-21.5 -2.5 -34.5 -2.5q-27 0 -56.5 9.5q-29.5 9.5 -54.5 40.5q-24 30 -30 64q-6 34 -6 58v354q0 32 5 64q5 32 28 64q15 21 33.5 34q18.5 13 37.5 20q19 7 37.5 9.5q18.5 2.5 32.5 2.5q39 0 71 -12q32 -12 53 -33q20 -20 35.5 -54q15.5 -34 15.5 -83v-28h-100v35q0 13 -3 28q-3 15 -17 29q-8 8 -21 14q-13 6 -33 6q-20 0 -33.5 -7q-13.5 -7 -22.5 -18q-14 -17 -16.5 -36q-2.5 -19 -2.5 -38v-328q0 -16 2.5 -36q2.5 -20 14.5 -36q9 -11 23.5 -18q14.5 -7 32.5 -7q16 0 32 7.5q16 7.5 26 20.5q14 17 16 40q2 23 2 42v94h-85v90h185v-382h-50zM350 864q0 -39 -19 -63q-15 -19 -42 -29q-27 -10 -59 -10q-32 0 -59 10q-27 10 -42 29q-19 24 -19 63v5h54v-3q0 -14 6.5 -21.5q6.5 -7.5 10.5 -10.5q10 -7 24 -9.5q14 -2.5 25 -2.5q11 0 25 2.5q14 2.5 24 9.5q4 3 10.5 10.5q6.5 7.5 6.5 21.5v3l54 0z" />
<glyph unicode="&#287;" horiz-adv-x="406" d="M352 496v-542q0 -30 -6 -60.5q-6 -30.5 -32 -57.5q-15 -17 -43 -31q-28 -14 -72 -14q-43 0 -70 14.5q-27 14.5 -41 31.5q-16 18 -26 46q-10 28 -12 57l100 0q-1 -11 3 -20.5q4 -9.5 10 -16.5q8 -9 18.5 -11.5q10.5 -2.5 18.5 -2.5q16 0 26 5.5q10 5.5 15 13.5q7 10 9 24q2 14 2 29v84q-14 -18 -33 -29q-14 -8 -29 -13.5q-15 -5.5 -37 -5.5q-22 0 -40.5 6.5q-18.5 6.5 -33.5 22.5q-20 20 -24.5 43q-4.5 23 -4.5 41v253q0 24 3 52q3 28 20 51q3 4 9.5 10.5q6.5 6.5 16.5 12.5q10 6 24 10.5q14 4.5 33 4.5q15 0 31 -4q16 -4 30 -13q10 -7 19 -16q9 -9 15 -19l1 0v44zM252 340q0 12 -2.5 25q-2.5 13 -13.5 25q-5 5 -14.5 10.5q-9.5 5.5 -23.5 5.5q-21 0 -35 -15q-9 -11 -11 -22q-2 -11 -2 -23v-196q0 -8 2 -18.5q2 -10.5 11 -21.5q14 -15 35 -15q14 0 23.5 5.5q9.5 5.5 14.5 10.5q11 12 13.5 25q2.5 13 2.5 25zM317 694q0 -17 -4 -37q-4 -20 -15 -36q-10 -15 -33 -30q-23 -15 -68 -15q-45 0 -68 15q-23 15 -33 30q-11 16 -15 36q-4 20 -4 37v6h54v-3q0 -13 5.5 -22.5q5.5 -9.5 11.5 -14.5q11 -9 24.5 -11.5q13.5 -2.5 24.5 -2.5q11 0 24.5 2.5q13.5 2.5 24.5 11.5q6 5 11.5 14.5q5.5 9.5 5.5 22.5v3l54 0z" />
<glyph unicode="&#288;" horiz-adv-x="461" d="M329 54q-11 -19 -24 -30q-13 -11 -24 -17q-22 -12 -43.5 -14.5q-21.5 -2.5 -34.5 -2.5q-27 0 -56.5 9.5q-29.5 9.5 -54.5 40.5q-24 30 -30 64q-6 34 -6 58v354q0 32 5 64q5 32 28 64q15 21 33.5 34q18.5 13 37.5 20q19 7 37.5 9.5q18.5 2.5 32.5 2.5q39 0 71 -12q32 -12 53 -33q20 -20 35.5 -54q15.5 -34 15.5 -83v-28h-100v35q0 13 -3 28q-3 15 -17 29q-8 8 -21 14q-13 6 -33 6q-20 0 -33.5 -7q-13.5 -7 -22.5 -18q-14 -17 -16.5 -36q-2.5 -19 -2.5 -38v-328q0 -16 2.5 -36q2.5 -20 14.5 -36q9 -11 23.5 -18q14.5 -7 32.5 -7q16 0 32 7.5q16 7.5 26 20.5q14 17 16 40q2 23 2 42v94h-85v90h185v-382h-50zM290 864v-100h-110l0 100z" />
<glyph unicode="&#289;" horiz-adv-x="406" d="M352 496v-542q0 -30 -6 -60.5q-6 -30.5 -32 -57.5q-15 -17 -43 -31q-28 -14 -72 -14q-43 0 -70 14.5q-27 14.5 -41 31.5q-16 18 -26 46q-10 28 -12 57l100 0q-1 -11 3 -20.5q4 -9.5 10 -16.5q8 -9 18.5 -11.5q10.5 -2.5 18.5 -2.5q16 0 26 5.5q10 5.5 15 13.5q7 10 9 24q2 14 2 29v84q-14 -18 -33 -29q-14 -8 -29 -13.5q-15 -5.5 -37 -5.5q-22 0 -40.5 6.5q-18.5 6.5 -33.5 22.5q-20 20 -24.5 43q-4.5 23 -4.5 41v253q0 24 3 52q3 28 20 51q3 4 9.5 10.5q6.5 6.5 16.5 12.5q10 6 24 10.5q14 4.5 33 4.5q15 0 31 -4q16 -4 30 -13q10 -7 19 -16q9 -9 15 -19l1 0v44zM252 340q0 12 -2.5 25q-2.5 13 -13.5 25q-5 5 -14.5 10.5q-9.5 5.5 -23.5 5.5q-21 0 -35 -15q-9 -11 -11 -22q-2 -11 -2 -23v-196q0 -8 2 -18.5q2 -10.5 11 -21.5q14 -15 35 -15q14 0 23.5 5.5q9.5 5.5 14.5 10.5q11 12 13.5 25q2.5 13 2.5 25zM253 686v-98h-100l0 98z" />
<glyph unicode="&#290;" horiz-adv-x="461" d="M329 54q-11 -19 -24 -30q-13 -11 -24 -17q-22 -12 -43.5 -14.5q-21.5 -2.5 -34.5 -2.5q-27 0 -56.5 9.5q-29.5 9.5 -54.5 40.5q-24 30 -30 64q-6 34 -6 58v354q0 32 5 64q5 32 28 64q15 21 33.5 34q18.5 13 37.5 20q19 7 37.5 9.5q18.5 2.5 32.5 2.5q39 0 71 -12q32 -12 53 -33q20 -20 35.5 -54q15.5 -34 15.5 -83v-28h-100v35q0 13 -3 28q-3 15 -17 29q-8 8 -21 14q-13 6 -33 6q-20 0 -33.5 -7q-13.5 -7 -22.5 -18q-14 -17 -16.5 -36q-2.5 -19 -2.5 -38v-328q0 -16 2.5 -36q2.5 -20 14.5 -36q9 -11 23.5 -18q14.5 -7 32.5 -7q16 0 32 7.5q16 7.5 26 20.5q14 17 16 40q2 23 2 42v94h-85v90h185v-382h-50zM275 -76v-100l-100 -80l0 180z" />
<glyph unicode="&#291;" horiz-adv-x="406" d="M352 496v-542q0 -30 -6 -60.5q-6 -30.5 -32 -57.5q-15 -17 -43 -31q-28 -14 -72 -14q-43 0 -70 14.5q-27 14.5 -41 31.5q-16 18 -26 46q-10 28 -12 57l100 0q-1 -11 3 -20.5q4 -9.5 10 -16.5q8 -9 18.5 -11.5q10.5 -2.5 18.5 -2.5q16 0 26 5.5q10 5.5 15 13.5q7 10 9 24q2 14 2 29v84q-14 -18 -33 -29q-14 -8 -29 -13.5q-15 -5.5 -37 -5.5q-22 0 -40.5 6.5q-18.5 6.5 -33.5 22.5q-20 20 -24.5 43q-4.5 23 -4.5 41v253q0 24 3 52q3 28 20 51q3 4 9.5 10.5q6.5 6.5 16.5 12.5q10 6 24 10.5q14 4.5 33 4.5q15 0 31 -4q16 -4 30 -13q10 -7 19 -16q9 -9 15 -19l1 0v44zM252 340q0 12 -2.5 25q-2.5 13 -13.5 25q-5 5 -14.5 10.5q-9.5 5.5 -23.5 5.5q-21 0 -35 -15q-9 -11 -11 -22q-2 -11 -2 -23v-196q0 -8 2 -18.5q2 -10.5 11 -21.5q14 -15 35 -15q14 0 23.5 5.5q9.5 5.5 14.5 10.5q11 12 13.5 25q2.5 13 2.5 25zM156 570v105l105 110l0 -215z" />
<glyph unicode="&#292;" horiz-adv-x="455" d="M160 700v-301h135v301h100v-700h-100v309h-135v-309h-100v700zM167 764h-64l57 105h134l57 -105h-64l-60 58z" />
<glyph unicode="&#293;" horiz-adv-x="410" d="M54 700h100v-244q14 18 33 29q14 8 29 13.5q15 5.5 37 5.5q22 0 40.5 -6.5q18.5 -6.5 33.5 -22.5q20 -20 24.5 -43q4.5 -23 4.5 -41v-391h-100v351q0 9 -2 19.5q-2 10.5 -11 20.5q-14 15 -35 15q-14 0 -23.5 -5.5q-9.5 -5.5 -14.5 -10.5q-11 -12 -13.5 -25q-2.5 -13 -2.5 -25v-340h-100zM54 735h-57l51 122h118l51 -122h-57l-53 67z" />
<glyph unicode="&#294;" horiz-adv-x="451" d="M56 644v56h100v-56h135v56h100v-56h49v-64h-49v-580h-100v309h-135v-309h-100v580h-45v64zM291 399v181h-135l0 -181z" />
<glyph unicode="&#295;" horiz-adv-x="458" d="M102 549h-48v60h48v91h100v-91h104v-60h-104v-93q14 18 33 29q14 8 29 13.5q15 5.5 37 5.5q22 0 40.5 -6.5q18.5 -6.5 33.5 -22.5q20 -20 24.5 -43q4.5 -23 4.5 -41v-391h-100v351q0 9 -2 19.5q-2 10.5 -11 20.5q-14 15 -35 15q-14 0 -23.5 -5.5q-9.5 -5.5 -14.5 -10.5q-11 -12 -13.5 -25q-2.5 -13 -2.5 -25v-340l-100 0z" />
<glyph unicode="&#298;" horiz-adv-x="220" d="M160 700v-700h-100v700zM222 824v-60h-224l0 60z" />
<glyph unicode="&#299;" horiz-adv-x="208" d="M54 496h100v-496h-100zM216 668v-70h-224l0 70z" />
<glyph unicode="&#302;" horiz-adv-x="220" d="M160 700v-700l-15 -12q-12 -10 -17.5 -14.5q-5.5 -4.5 -8.5 -8.5q-8 -8 -10 -16q-2 -8 -2 -14q0 -14 9 -21q2 -2 8 -5q6 -3 17 -3q19 0 32 13l32 -32q-12 -15 -29 -24q-12 -7 -22.5 -9.5q-10.5 -2.5 -23.5 -2.5q-14 0 -31.5 3q-17.5 3 -31.5 17q-11 11 -16 24q-5 13 -5 27q0 9 3.5 19.5q3.5 10.5 11.5 21.5q7 8 15.5 15q8.5 7 18.5 13l14 9h-49l0 700z" />
<glyph unicode="&#303;" horiz-adv-x="208" d="M54 496h100v-496l-15 -11q-7 -5 -11.5 -8q-4.5 -3 -18.5 -15q-7 -6 -13 -13q-6 -7 -6 -18q0 -8 6 -18.5q6 -10.5 26 -10.5q12 0 20.5 4q8.5 4 13.5 9l32 -32q-22 -25 -43 -30.5q-21 -5.5 -32 -5.5q-25 0 -41.5 7.5q-16.5 7.5 -26 18q-9.5 10.5 -13 23q-3.5 12.5 -3.5 22.5q0 26 15 40.5q15 14.5 33 25.5l19 12h-42zM154 686v-98h-100l0 98z" />
<glyph unicode="&#304;" horiz-adv-x="220" d="M160 700v-700h-100v700zM165 864v-100h-110l0 100z" />
<glyph unicode="&#305;" horiz-adv-x="208" d="M54 496h100v-496l-100 0z" />
<glyph unicode="&#307;" horiz-adv-x="418" d="M54 496h100v-496h-100zM154 686v-98h-100v98zM364 -47q0 -28 -3 -59.5q-3 -31.5 -29 -60.5q-25 -27 -53.5 -32q-28.5 -5 -53.5 -5h-32v98h18q16 0 25.5 5q9.5 5 14.5 10q10 11 11.5 23q1.5 12 1.5 21v543h100zM364 686v-98h-100l0 98z" />
<glyph unicode="&#308;" horiz-adv-x="361" d="M301 700v-502q0 -19 -1 -40q-1 -21 -6 -42q-5 -21 -15.5 -42q-10.5 -21 -28.5 -39q-30 -30 -63.5 -37.5q-33.5 -7.5 -64.5 -7.5q-10 0 -25 1.5q-15 1.5 -33 7.5q-18 6 -37 18q-19 12 -37 33l77 65q13 -18 29 -22.5q16 -4.5 27 -4.5q17 0 32.5 5.5q15.5 5.5 26.5 20.5q12 16 15.5 35q3.5 19 3.5 36v515zM185 764h-64l57 105h134l57 -105h-64l-60 58z" />
<glyph unicode="&#309;" horiz-adv-x="210" d="M156 -47q0 -28 -3 -59.5q-3 -31.5 -29 -60.5q-25 -27 -53.5 -32q-28.5 -5 -53.5 -5h-32v98h18q16 0 25.5 5q9.5 5 14.5 10q10 11 11.5 23q1.5 12 1.5 21v543h100zM52 578h-57l51 122h118l51 -122h-57l-53 67z" />
<glyph unicode="&#310;" horiz-adv-x="475" d="M160 700v-337l159 337h105l-142 -287l168 -413h-109l-119 313l-62 -108v-205h-100v700zM282 -76v-100l-100 -80l0 180z" />
<glyph unicode="&#311;" horiz-adv-x="407" d="M54 700h100v-420h2l120 216h100l-119 -202l143 -294h-108l-90 214l-48 -75v-139h-100zM266 -73v-96l-100 -80l0 176z" />
<glyph unicode="&#313;" horiz-adv-x="407" d="M160 700v-605h212v-95h-312v700zM67 764l50 105h121l-106 -105z" />
<glyph unicode="&#314;" horiz-adv-x="230" d="M154 700v-559q0 -9 2.5 -19.5q2.5 -10.5 11.5 -18.5q8 -7 17 -8.5q9 -1.5 15 -1.5h10v-93h-29q-9 0 -21.5 1q-12.5 1 -26.5 5.5q-14 4.5 -28 12.5q-14 8 -26 23q-18 23 -21.5 47.5q-3.5 24.5 -3.5 46.5v564zM56 726l44 122h107l-94 -122z" />
<glyph unicode="&#315;" horiz-adv-x="407" d="M160 700v-605h212v-95h-312v700zM248 -76v-100l-100 -80l0 180z" />
<glyph unicode="&#316;" horiz-adv-x="230" d="M154 700v-559q0 -9 2.5 -19.5q2.5 -10.5 11.5 -18.5q8 -7 17 -8.5q9 -1.5 15 -1.5h10v-93h-29q-9 0 -21.5 1q-12.5 1 -26.5 5.5q-14 4.5 -28 12.5q-14 8 -26 23q-18 23 -21.5 47.5q-3.5 24.5 -3.5 46.5v564zM184 -73v-96l-100 -80l0 176z" />
<glyph unicode="&#317;" horiz-adv-x="407" d="M160 700v-605h212v-95h-312v700zM331 700v-100l-100 -90l0 190z" />
</font>
</defs>
</svg>
